<svg xmlns="http://www.w3.org/2000/svg" width="90.004" height="40" viewBox="0 0 90.004 40">
  <path id="Path_22" data-name="Path 22" d="M104.511,223.826a4.838,4.838,0,1,1-.4-9.668,4.661,4.661,0,0,1,.473,0,5.318,5.318,0,0,1,3.876,1.456l-1.12,1.214a4.043,4.043,0,0,0-2.773-1.161,3.324,3.324,0,0,0,0,6.647,3.991,3.991,0,0,0,2.844-1.214l1.117,1.068a5.247,5.247,0,0,1-4.017,1.655m15.1-.16H117.77l-1-2.256h-4.683l-1.018,2.256h-1.783l4.358-9.412h1.613Zm-5.194-7.452-1.7,3.735h3.41Zm13.016,7.452L125,220.408h-2.179v3.258h-1.743v-9.344h4.413c2.278,0,3.679,1.134,3.679,2.963a2.839,2.839,0,0,1-2.366,2.844l2.674,3.537Zm-2.08-7.85h-2.532v3.137h2.546c1.245,0,2.037-.614,2.037-1.575,0-1.028-.764-1.562-2.054-1.562m8.026,7.85h-1.743v-9.344h1.743Zm6.35-3h-1.967v3h-1.739v-9.344h3.9c2.3,0,3.763,1.228,3.763,3.137,0,2.109-1.782,3.2-3.961,3.2m.057-4.846h-2.024v3.362h2.024c1.316,0,2.136-.68,2.136-1.681,0-1.108-.835-1.681-2.136-1.681m6.142-1.494h1.743v7.849h4.98v1.494h-6.721Zm12.69,9.5a4.9,4.9,0,0,1-5.167-4.819,4.95,4.95,0,0,1,5.2-4.849,4.844,4.844,0,1,1-.028,9.665m0-8.155a3.249,3.249,0,0,0-3.339,3.157c0,.051,0,.1,0,.154a3.294,3.294,0,0,0,3.252,3.335h.116a3.249,3.249,0,0,0,3.338-3.157c0-.051,0-.1,0-.154a3.293,3.293,0,0,0-3.251-3.337c-.038,0-.077,0-.115,0M189.459,197.3,174.378,211.53l3.834,3.617a13.108,13.108,0,0,0-3.175,8.52c0,7.51,6.466,13.619,14.422,13.634v-3c-6.205-.015-11.245-4.78-11.245-10.637a10.2,10.2,0,0,1,2.261-6.386l8.984,8.477V221.52l-6.739-6.358a11.649,11.649,0,0,1,6.739-2.134v-3a14.927,14.927,0,0,0-9,3l-1.588-1.5,10.588-9.991Zm-89.4,6.666v3.5h4.616V208h-4.616v3.486h-.606V203.44H105.2v.527Zm9.145,7.65a2.952,2.952,0,0,1-3.041-2.862v-.074a2.984,2.984,0,0,1,3.031-2.937h.034a2.954,2.954,0,0,1,3.041,2.864v.073a2.984,2.984,0,0,1-3.031,2.937h-.035m2.448-2.936a2.417,2.417,0,0,0-2.406-2.428h-.042a2.378,2.378,0,0,0-2.424,2.331v.1a2.418,2.418,0,0,0,2.407,2.428h.041a2.38,2.38,0,0,0,2.424-2.332c0-.025,0-.051,0-.076Zm6.675,2.8v-3.329a1.759,1.759,0,0,0-1.889-1.914,1.98,1.98,0,0,0-2.061,1.9c0,.035,0,.071,0,.106v3.244h-.571v-5.609h.571v1.045a2.352,2.352,0,0,1,2.145-1.176,2.195,2.195,0,0,1,2.378,2.31v3.432Zm7.346,0v-1.25a2.9,2.9,0,0,1-2.448,1.385,2.863,2.863,0,0,1-2.891-2.835v-.1a2.9,2.9,0,0,1,5.339-1.6v-3.63h.571v8.031Zm.035-2.816a2.41,2.41,0,0,0-2.412-2.408h-.012a2.254,2.254,0,0,0-2.335,2.169c0,.076,0,.152,0,.228v.026a2.316,2.316,0,0,0,2.212,2.417c.039,0,.079,0,.119,0a2.419,2.419,0,0,0,2.424-2.41Zm6.786,2.816v-.934a2.755,2.755,0,0,1-2.273,1.068c-1.107,0-2.3-.594-2.3-1.76v-.022c0-1.166,1.059-1.826,2.6-1.826a7.562,7.562,0,0,1,1.97.242v-.242c0-1.133-.734-1.716-1.958-1.716a4.182,4.182,0,0,0-1.868.451l-.209-.473a5,5,0,0,1,2.109-.483c1.528,0,2.483.747,2.483,2.2v3.5Zm.012-2.739a8.368,8.368,0,0,0-2.017-.253c-1.258,0-1.958.528-1.958,1.308v.022c0,.814.816,1.287,1.725,1.287,1.212,0,2.25-.7,2.25-1.727Zm2.422,2.739v-.307l4.289-4.818h-4.126v-.484h4.976v.308L135.78,211h4.288v.483Zm6.88-7.809h.71v.737h-.711Zm.07,2.2h.571v5.61h-.571Zm5,5.742a2.954,2.954,0,0,1-3.041-2.864v-.069a2.984,2.984,0,0,1,3.031-2.937h.035a2.954,2.954,0,0,1,3.041,2.863v.074a2.984,2.984,0,0,1-3.031,2.937h-.034m2.448-2.936a2.418,2.418,0,0,0-2.407-2.428h-.041a2.377,2.377,0,0,0-2.424,2.331q0,.039,0,.078v.019a2.417,2.417,0,0,0,2.406,2.428h.041a2.378,2.378,0,0,0,2.424-2.332c0-.025,0-.051,0-.076Zm6.674,2.8v-3.329a1.76,1.76,0,0,0-1.591-1.912,1.733,1.733,0,0,0-.3,0,1.981,1.981,0,0,0-2.062,1.9c0,.035,0,.071,0,.106v3.244h-.571v-5.609h.571v1.045a2.35,2.35,0,0,1,2.144-1.176,2.2,2.2,0,0,1,2.378,2.31v3.432Zm5.155-.373a2.739,2.739,0,0,0,2.04-.879l.4.33a3.2,3.2,0,0,1-2.459,1.058,2.864,2.864,0,0,1-2.915-2.812v-.136a2.836,2.836,0,0,1,2.743-2.925h.078a2.717,2.717,0,0,1,2.728,2.936v.023a1.3,1.3,0,0,1-.012.2h-4.931a2.3,2.3,0,0,0,2.332,2.211m1.992-2.695a2.133,2.133,0,0,0-2.086-2.178h-.048a2.251,2.251,0,0,0-2.191,2.179Z" transform="translate(-99.455 -197.301)" fill="#030504"/>
</svg>
