<?xml version="1.0" encoding="utf-8"?>
<!-- Generator: Adobe Illustrator 26.0.3, SVG Export Plug-In . SVG Version: 6.00 Build 0)  -->
<svg version="1.1" id="Layer_1" xmlns="http://www.w3.org/2000/svg" xmlns:xlink="http://www.w3.org/1999/xlink" x="0px" y="0px"
	 viewBox="0 0 200 191" style="enable-background:new 0 0 200 191;" xml:space="preserve">
<style type="text/css">
	.st0{fill-rule:evenodd;clip-rule:evenodd;}
</style>
<path id="Combined-Shape" class="st0" d="M107.2,163.5c5.4,0,7,1.5,7,4.6v4.9h-6v-3.5c0-0.8-0.5-1.2-1.5-1.2c-1.1,0-1.6,0.3-1.6,1.2
	V185c0,0.8,0.6,1.2,1.6,1.2c1,0,1.6-0.3,1.6-1.2v-4.2h6v4c0,4.8-1.8,6.2-7,6.2h-2.3c-4.6,0-6.2-2.3-6.2-5.8V170
	c0-4.3,1.7-6.5,6.2-6.5H107.2z M123.9,163.8v26.9h-6.2v-26.9H123.9z M71.5,163.8v26.9h-6.2v-26.9H71.5z M32.1,163.8l4.1,26.9h-6.3
	l-0.8-6.5h-4l-0.8,6.5h-6.3l4.1-26.9H32.1z M51.3,163.8l2.5,23.6h0.1l2.4-23.6h6.3L59,190.7H48.5L45,163.8H51.3z M8,163.8
	c5.8,0,7.6,1.3,7.6,10.1v6.7c0,8.9-1.8,10.1-7.6,10.1H0v-26.9H8z M85.2,163.8l4.5,21l0.1-0.1l-0.4-20.9h5.7v26.9h-9l-4.5-20.9h-0.1
	l0.4,20.9h-5.7v-26.9H85.2z M7.8,168.4H6.2v17.5h1.6c1.3,0,1.6-0.6,1.6-2.6V171C9.4,169,9.1,168.4,7.8,168.4z M27.1,167.5
	L27.1,167.5l-1.5,12.1h3L27.1,167.5z M141.1,130.8c5.2,0,8,1.2,8,5.5v16.4c0,4.4-2.8,5.6-8,5.6c-5.2,0-8-1.2-8-5.6v-16.4
	C133.1,131.9,135.9,130.8,141.1,130.8z M39.6,130.8c5.1,0,8,1.2,8,5.5v16.4c0,4.4-2.8,5.6-8,5.6c-5.2,0-8-1.2-8-5.6v-16.4
	C31.6,131.9,34.4,130.8,39.6,130.8z M101.4,131.1c6.6,0,8.5,1.4,8.5,6.4v3.2c0,4.1-1.6,5-4.2,5.5v0.1c2.7,0.6,4.2,1.1,4.2,4.4v7.3
	h-6.2v-7.7c0-1.1-0.6-1.6-2.7-1.6H100v9.3h-6.1v-26.9H101.4z M122,131.1c5.7,0,7.6,1.3,7.6,10.1v6.7c0,8.8-1.8,10.1-7.6,10.1h-8
	v-26.9H122z M6.2,131.1v22.1h6v4.8H0v-26.9H6.2z M27.8,131.1v4.8h-5.7v5.9h5.3v4.6h-5.3v6.7h6.1v4.8H16v-26.9H27.8z M87,131.1
	l4,26.9h-6.3l-0.8-6.5h-4l-0.8,6.5h-6.3l4-26.9H87z M59.9,131.1l4.5,21l0.1-0.1l-0.4-20.9h5.7V158h-9l-4.5-21h-0.1l0.4,21H51v-26.9
	H59.9z M141.1,135.4c-1.2,0-1.6,0.3-1.6,1.3v15.8c0,1,0.5,1.3,1.6,1.3c1.2,0,1.6-0.3,1.6-1.3v-15.8
	C142.7,135.6,142.3,135.4,141.1,135.4z M39.6,135.4c-1.2,0-1.6,0.3-1.6,1.3v15.8c0,1,0.4,1.3,1.6,1.3c1.1,0,1.6-0.3,1.6-1.3v-15.8
	C41.2,135.6,40.7,135.4,39.6,135.4z M121.8,135.7h-1.6v17.4h1.6c1.4,0,1.6-0.6,1.6-2.6v-12.3C123.4,136.3,123.2,135.7,121.8,135.7z
	 M82,134.8L82,134.8l-1.5,12.1h3L82,134.8z M101.9,135.7H100v8.4h1.2c2.2,0,2.5-0.6,2.5-2.3v-4.1
	C103.7,136.3,103.2,135.7,101.9,135.7z M140.8,98.1c5.2,0,8,1.2,8,5.6v16.4c0,4.4-2.8,5.5-8,5.5c-5.2,0-8-1.2-8-5.5v-16.4
	C132.8,99.3,135.6,98.1,140.8,98.1z M106.1,98.1c5.1,0,8,1.2,8,5.6v16.4c0,4.4-2.8,5.5-8,5.5c-5.2,0-8-1.2-8-5.5v-16.4
	C98.1,99.3,100.9,98.1,106.1,98.1z M160.3,98.1c4.9,0,8,0.8,8,6.4v2.7h-5.9v-2.8c0-1.2-0.5-1.5-2-1.5c-1.2,0-1.6,0.3-1.6,1.7V120
	c0,0.7,0.5,1,1.7,1c1.5,0,2-0.3,2-0.9v-4.2h-1.9v-5.1h7.8v8.6c0,5.2-2.1,6.1-8,6.1c-5.2,0-8-1.2-8-5.5v-16.4
	C152.3,99.3,155.1,98.1,160.3,98.1z M64.2,98.1c5.4,0,7,1.5,7,4.6v4.9h-6v-3.5c0-0.8-0.6-1.2-1.6-1.2c-1.1,0-1.6,0.3-1.6,1.2v15.5
	c0,0.8,0.6,1.1,1.6,1.1c1,0,1.6-0.3,1.6-1.1v-4.3h6v4c0,4.8-1.8,6.2-7,6.2h-2.3c-4.6,0-6.2-2.3-6.2-5.7v-15.2c0-4.3,1.6-6.6,6.2-6.6
	H64.2z M37.4,98.4v4.8H33v22.1h-6.2v-22.1h-4.3v-4.8H37.4z M178.7,98.4v26.9h-6.2V98.4H178.7z M84,98.4l4.5,21l0.1-0.1l-0.5-20.9
	h5.7v26.9h-9l-4.5-20.9h0l0.4,20.9h-5.7V98.4H84z M11.8,98.4v4.8H6.1v5.9h5.3v4.6H6.1v6.7h6.1v4.8H0V98.4H11.8z M195.9,98.4
	l4.1,26.9h-6.3l-0.8-6.5h-4l-0.8,6.5h-6.3l4.1-26.9H195.9z M124.1,98.4v22.1h6v4.8h-12.2V98.4H124.1z M51.9,98.4v4.8h-5.7v5.9h5.3
	v4.6h-5.3v6.7h6.1v4.8H40.1V98.4H51.9z M106.1,102.7c-1.2,0-1.6,0.2-1.6,1.2v15.8c0,1,0.5,1.3,1.6,1.3c1.1,0,1.6-0.3,1.6-1.3v-15.8
	C107.7,103,107.2,102.7,106.1,102.7z M140.8,102.7c-1.1,0-1.6,0.2-1.6,1.2v15.8c0,1,0.4,1.3,1.6,1.3c1.2,0,1.6-0.3,1.6-1.3v-15.8
	C142.4,103,142,102.7,140.8,102.7z M191,102.1L191,102.1l-1.5,12.1h3L191,102.1z M27.8,65.4c5.4,0,7,1.5,7,4.6v4.9h-6v-3.5
	c0-0.8-0.6-1.2-1.6-1.2c-1.1,0-1.6,0.3-1.6,1.2v15.5c0,0.8,0.6,1.2,1.6,1.2c1,0,1.6-0.3,1.6-1.2v-4.2h6v4c0,4.7-1.8,6.2-7,6.2h-2.3
	c-4.6,0-6.2-2.3-6.2-5.8V71.9c0-4.3,1.6-6.5,6.2-6.5H27.8z M8,65.4c5.3,0,7.1,1.5,7.1,5.2v3.2H9.6v-1.3c0-2.4-0.2-2.6-1.7-2.6
	c-1.6,0-1.7,0.6-1.8,1.8l0,1.9c0,1.7,0.5,2,2.3,2.4c6.6,1.7,7.3,2.2,7.3,9.1c0,6.4-2.4,7.6-7.6,7.6c-6.7,0-7.9-1.5-7.9-6.9v-2.2h5.7
	v1.9c0,1.9,0,2.6,1.8,2.6c1.4,0,1.8-0.4,1.8-1.6v-2.9c0-1.9-0.4-2-3.7-2.8c-4.8-1.1-5.7-2.3-5.7-7.1v-1.7C0.2,66,2.1,65.4,8,65.4z
	 M61,65.7v4.8h-5.7v5.9h5.3V81h-5.3v6.7h6.1v4.8H49.1V65.7H61z M117.3,65.7l4,26.9h-6.3l-0.8-6.5h-4l-0.8,6.5h-6.3l4-26.9H117.3z
	 M101.1,65.7v4.7l-6.9,17.4h6.9v4.8H87.6V88l6.9-17.5h-6.2v-4.8H101.1z M74.3,65.7l4.5,21l0.1-0.1l-0.4-20.9h5.7v26.9h-9l-4.5-21
	h-0.1l0.4,21h-5.7V65.7H74.3z M44.6,65.7v26.9h-6.2V65.7H44.6z M112.3,69.4L112.3,69.4l-1.5,12.1h2.9L112.3,69.4z M77.7,32.7
	c5.2,0,8,1.2,8,5.5v16.4c0,4.4-2.8,5.6-8,5.6s-8-1.2-8-5.6V38.2C69.7,33.8,72.5,32.7,77.7,32.7z M9,33l4.5,21l0.1-0.1L13.2,33h5.7
	v26.9h-9l-4.5-21H5.3l0.4,21H0V33H9z M98.6,33l4.5,21l0.1-0.1L102.8,33h5.7v26.9h-9l-4.5-21H95l0.4,21h-5.7V33H98.6z M159.6,33v4.8
	h-5.7v5.9h5.3v4.6h-5.3V55h6.1v4.8h-12.3V33H159.6z M138.8,33V55h6v4.8h-12.1V33H138.8z M35.8,33l4,26.9h-6.3l-0.8-6.5h-4L28,59.9
	h-6.3l4-26.9H35.8z M55.7,33v4.7L48.8,55h6.9v4.8H42.1v-4.6L49,37.8h-6.2V33H55.7z M125.6,33l4,26.9h-6.3l-0.8-6.5h-4l-0.8,6.5h-6.3
	l4-26.9H125.6z M65.8,33v26.9h-6.2V33H65.8z M77.7,37.3c-1.2,0-1.6,0.3-1.6,1.3v15.8c0,1,0.4,1.3,1.6,1.3c1.1,0,1.6-0.2,1.6-1.3
	V38.6C79.3,37.6,78.8,37.3,77.7,37.3z M30.9,36.7L30.9,36.7l-1.5,12.1h3L30.9,36.7z M120.6,36.7L120.6,36.7l-1.5,12.1h3L120.6,36.7z
	 M56.2,0c5.4,0,7.1,1.5,7.1,5.2v3.2h-5.5V7.2c0-2.4-0.2-2.6-1.7-2.6c-1.6,0-1.7,0.6-1.7,1.8l0,1.9c0,1.7,0.4,2,2.3,2.5
	c6.6,1.7,7.3,2.2,7.3,9.1c0,6.5-2.4,7.6-7.6,7.6c-6.7,0-7.9-1.6-7.9-6.9v-2.2h5.7l0,2.3c0,1.6,0.1,2.2,1.8,2.2
	c1.4,0,1.8-0.4,1.8-1.6v-2.9c0-1.8-0.4-2-3.7-2.8c-4.8-1.1-5.7-2.3-5.7-7.1V6.9C48.4,0.6,50.3,0,56.2,0z M91,0c5.2,0,8,1.2,8,5.5V22
	c0,4.4-2.8,5.5-8,5.5s-8-1.2-8-5.5V5.5C82.9,1.2,85.8,0,91,0z M35.6,0.3V21c0,1,0.4,1.7,1.6,1.7c1.2,0,1.6-0.6,1.6-1.7V0.3H45v20.5
	c0,6-2.9,6.7-7.8,6.7c-4.9,0-7.8-0.7-7.8-6.7V0.3H35.6z M79.4,0.3v4.8h-5.7V11H79v4.6h-5.3v6.7h6.1v4.8H67.5V0.3H79.4z M9.7,0.3
	l3,21.2h0.1l3-21.2h9.7v26.9h-5.6l0.2-22.6H20l-4,22.6H9L5.6,4.5H5.5v22.7H0V0.3H9.7z M91,4.6c-1.2,0-1.6,0.2-1.6,1.3v15.7
	c0,1,0.4,1.3,1.6,1.3c1.1,0,1.6-0.3,1.6-1.3V5.9C92.6,4.9,92.1,4.6,91,4.6z"/>
</svg>
