<svg xmlns="http://www.w3.org/2000/svg" width="32.751" height="40" viewBox="0 0 32.751 40">
  <g id="logo-densitydesign" transform="translate(-212.868 -161.022)">
    <path id="Path_10" data-name="Path 10" d="M240.283,166.214h5.336v-.944h-5.336Z" fill="#030504" fill-rule="evenodd"/>
    <path id="Path_11" data-name="Path 11" d="M222.75,170.936v-9.914h3.111v1.43h-1.627v2.712h1.084v1.356h-1.084v2.947h1.627v1.474H222.75" fill="#030504" fill-rule="evenodd"/>
    <path id="Path_12" data-name="Path 12" d="M235.03,170.936l-1.512-5.017-.426-1.594v6.609h-.91v-9.912h.869l1.379,5.09.4,1.609v-6.7h.91v9.914h-.71" fill="#030504" fill-rule="evenodd"/>
    <g id="Group_3" data-name="Group 3">
      <path id="Path_13" data-name="Path 13" d="M223.671,186.282h1.485V176.236h-1.485Z" fill="#030504" fill-rule="evenodd"/>
      <path id="Path_14" data-name="Path 14" d="M215.736,200.87l-.158-.528a1.127,1.127,0,0,1-1.051.678c-1.009,0-1.657-.772-1.657-1.977v-6.4a1.9,1.9,0,0,1,1.819-1.975h.04a1.851,1.851,0,0,1,1.806,1.894c0,.027,0,.055,0,.082v1.857h-1.383v-1.918a.366.366,0,0,0-.323-.4.373.373,0,0,0-.067,0,.384.384,0,0,0-.406.407v6.592a.4.4,0,0,0,.363.435l.043,0a.393.393,0,0,0,.4-.382.353.353,0,0,0,0-.056v-2.049h-.375v-1.206H216.6v4.949h-.863" fill="#030504" fill-rule="evenodd"/>
    </g>
    <path id="Path_15" data-name="Path 15" d="M224.742,201.022l-.982-4.479-.3-1.356v5.835H222.3v-9.913h1.289l.867,4.449.261,1.385v-5.834h1.146v9.913h-1.122" fill="#030504" fill-rule="evenodd"/>
    <path id="Path_16" data-name="Path 16" d="M234.5,177.317v8.9H233.47v-8.9h-1.288V176.3h3.557v1.012H234.5" fill="#030504" fill-rule="evenodd"/>
    <path id="Path_17" data-name="Path 17" d="M242.759,182.3v3.914h-1.017V182.3l-1.459-6H241.3l1,4.614,1.008-4.614h.975l-1.527,6" fill="#030504" fill-rule="evenodd"/>
    <path id="Path_18" data-name="Path 18" d="M231.295,196.773h5.337v-1.416h-5.337Z" fill="#030504" fill-rule="evenodd"/>
    <path id="Path_19" data-name="Path 19" d="M233.066,198.662H234.4V193h-1.334Z" fill="#030504" fill-rule="evenodd"/>
    <g id="Group_4" data-name="Group 4">
      <path id="Path_20" data-name="Path 20" d="M214.342,169.687c.978,0,1.042-.259,1.029-3.55.013-3.275-.051-3.537-1.029-3.537Zm-.294,1.474h-1.1V161.126h1.1c2.57.013,2.766,1.092,2.766,5.024s-.19,5-2.766,5.011Z" fill="#030504" fill-rule="evenodd"/>
      <path id="Path_21" data-name="Path 21" d="M215.274,180.593a4.737,4.737,0,0,1-.921-2.679c0-.346.2-.511.439-.511.225,0,.4.181.4.511v.762l1.262-.126v-.485c0-1.324-.666-2.092-1.659-2.092-1.272,0-1.885,1.006-1.885,2.257a7.81,7.81,0,0,0,1.3,3.477,5.276,5.276,0,0,1,.893,2.619c0,.377-.155.6-.466.6-.328,0-.482-.24-.482-.6v-.808l-1.277.127v.564c0,1.338.7,2.091,1.831,2.091.921,0,1.814-.647,1.814-2.211a7.693,7.693,0,0,0-1.248-3.49" fill="#030504" fill-rule="evenodd"/>
    </g>
  </g>
</svg>
