<svg xmlns="http://www.w3.org/2000/svg" width="117.264" height="40" viewBox="0 0 117.264 40">
  <g id="Group_28" data-name="Group 28" transform="translate(-16.191 -176.973)">
    <path id="Path_34" data-name="Path 34" d="M48.708,204.253a.211.211,0,1,0,.212.211h0A.211.211,0,0,0,48.708,204.253Zm0,.352a.141.141,0,1,1,.141-.141.141.141,0,0,1-.141.141h0Zm-1.233-.352a.211.211,0,1,0,.212.211h0A.211.211,0,0,0,47.475,204.253Zm0,.352a.141.141,0,1,1,.141-.141.144.144,0,0,1-.141.143Zm-1.234-.352a.211.211,0,1,0,.212.211h0A.211.211,0,0,0,46.241,204.253Zm0,.352a.141.141,0,1,1,.141-.141.141.141,0,0,1-.141.141h0Zm-1.234-.352a.211.211,0,1,0,.212.211h0A.211.211,0,0,0,45.007,204.253Zm0,.352a.141.141,0,1,1,.145-.141.142.142,0,0,1-.139.144h-.006Zm-1.233-.352a.211.211,0,1,0,.211.211h0A.21.21,0,0,0,43.774,204.253Zm0,.352a.141.141,0,1,1,.141-.141.141.141,0,0,1-.141.141h0Zm-1.235-.352a.211.211,0,1,0,.212.211h0A.211.211,0,0,0,42.539,204.253Zm0,.352a.141.141,0,1,1,.141-.141.141.141,0,0,1-.141.141h0Zm-1.233-.352a.211.211,0,1,0,.211.211h0A.211.211,0,0,0,41.306,204.253Zm0,.352a.141.141,0,1,1,.141-.141.144.144,0,0,1-.141.143Zm-10.3.071a.211.211,0,1,0,0-.423h0a.211.211,0,0,0,0,.423Zm0-.353a.141.141,0,1,1-.141.141.141.141,0,0,1,.141-.141h0Zm1.2.353a.211.211,0,1,0-.211-.212h0a.212.212,0,0,0,.209.211Zm0-.353a.141.141,0,1,1-.141.141.145.145,0,0,1,.139-.145Zm-2.431.353a.211.211,0,1,0-.212-.212h0a.213.213,0,0,0,.21.211Zm0-.353a.141.141,0,1,1-.141.141.141.141,0,0,1,.141-.141h0Zm5.064-19.182a1.151,1.151,0,0,0-.652-.25.112.112,0,0,0-.026,0l-.009,0a.334.334,0,0,0-.06.016l-.011.007a.056.056,0,0,0-.016.076.057.057,0,0,0,.071.019c.011.034.023.075.038.112a.055.055,0,0,0-.036.038.056.056,0,0,0,.037.07h0a1.117,1.117,0,0,0,.568-.018l.032.02a.056.056,0,1,0,.063-.093Zm-.532,0-.008-.013a.46.46,0,0,1-.052-.128.95.95,0,0,1,.362.131,1.131,1.131,0,0,1-.3.011Zm16.983,3.081a1.135,1.135,0,0,0,.487-1.27,2.345,2.345,0,0,0-.38-.753c-.182-.265-.365-.512-.564-.767-.035-.023-.082.014-.081.05l.037.075c.071.141.017.206-.2.353l-1.189.825c-.329.226-.371.245-.521.081l-.058-.066c-.031-.005-.077.036-.071.061.107.141.188.253.277.384.076.109.188.327.326.527a1.838,1.838,0,0,0,.635.6A1.244,1.244,0,0,0,51.294,188.222Zm-1.8-.514c-.136-.2-.186-.337-.138-.473.04-.1.133-.182.3-.3l1.154-.792c.141-.1.224-.141.26-.133a.858.858,0,0,1,.256.283,1.069,1.069,0,0,1-.1,1.51.984.984,0,0,1-.153.112,1.022,1.022,0,0,1-1.446-.032A.976.976,0,0,1,49.491,187.708Zm1.534,1.583,1.191-.635c.353-.189.416-.211.538-.024l.051.08c.024.013.081-.025.08-.051-.095-.164-.159-.276-.231-.41s-.132-.257-.212-.424c-.021-.015-.085.011-.087.038l.037.087c.088.207.036.244-.32.433l-1.192.635c-.353.189-.406.207-.534.022l-.055-.079c-.031-.009-.081.026-.081.052.1.163.161.276.235.416s.129.25.212.423c.021.014.085-.01.088-.038l-.035-.089C50.625,189.513,50.672,189.481,51.025,189.291Zm3.369,11.44-.022.057c-.082.212-.141.2-.52.107l-1.324-.34c-.385-.1-.437-.131-.4-.345l.019-.125a.071.071,0,0,0-.093-.016c-.048.219-.076.345-.117.5l-.084.331c-.085.327-.173.653-.264.982a3.3,3.3,0,0,0,.468.3.071.071,0,0,0,.05-.086.952.952,0,0,1-.29-.352,1.1,1.1,0,0,1,.065-.486c.084-.323.141-.389.2-.423a.617.617,0,0,1,.4.028L53,201c.1.024.1.036.071.147l-.055.211a1.35,1.35,0,0,1-.091.278.162.162,0,0,1-.169.078l-.152,0c-.027.013-.044.075-.021.1.081.02.224.041.357.075s.282.088.367.111a.075.075,0,0,0,.028-.1l-.141-.071c-.087-.042-.1-.07-.106-.121a1.384,1.384,0,0,1,.06-.318l.053-.211c.029-.111.031-.122.134-.1l.735.188c.141.036.148.038.118.149l-.07.264a1.818,1.818,0,0,1-.114.353c-.1.179-.233.179-.423.19a.075.075,0,0,0-.016.094,4.29,4.29,0,0,0,.5.066,5.059,5.059,0,0,1,.116-.5l.177-.691c.039-.151.075-.275.123-.431,0-.024-.072-.048-.089-.031Zm-5.41-14.474a.97.97,0,0,1-.453.057,1.137,1.137,0,0,1-.374-.315c-.23-.242-.253-.329-.252-.393.005-.088.091-.186.237-.324l.388-.367c.071-.071.084-.062.162.021l.151.159a1.381,1.381,0,0,1,.186.225.16.16,0,0,1-.024.186l-.084.126c0,.03.042.076.071.07.061-.057.155-.166.254-.26s.223-.19.289-.253c.009-.029-.036-.076-.065-.075l-.134.086c-.082.051-.118.047-.159.024a1.361,1.361,0,0,1-.237-.218l-.152-.16c-.079-.083-.086-.091-.009-.164l.552-.522c.1-.1.11-.1.189-.021l.187.2a1.717,1.717,0,0,1,.235.282c.1.177.028.293-.063.457,0,.03.044.071.07.064a4.222,4.222,0,0,0,.326-.391,5.046,5.046,0,0,1-.36-.364l-.491-.519c-.106-.112-.191-.212-.3-.333-.023-.008-.079.032-.07.06l.036.049c.134.181.1.225-.189.494l-.993.938c-.289.274-.345.3-.507.154l-.094-.082c-.032,0-.071.046-.064.07.16.157.251.249.363.367l.234.249q.348.368.691.748a3.421,3.421,0,0,0,.5-.239A.07.07,0,0,0,48.984,186.257Zm5.9,11.316c-.012-.032-.071-.037-.095-.018l-.013.065a.419.419,0,0,1-.114.224.35.35,0,0,1-.282.055l-1.091-.114a3.658,3.658,0,0,1-.776-.129c-.04-.024-.055-.086-.058-.175v-.1a.07.07,0,0,0-.1,0c-.007.132-.013.235-.03.393-.014.141-.032.271-.057.441a.071.071,0,0,0,.094.017l.022-.115c.018-.094.048-.168.093-.185a2.889,2.889,0,0,1,.788.013l.823.085a1.051,1.051,0,0,1,.243.044v.008c-.091.071-.428.295-.554.385l-1.089.772c-.408.289-.551.385-.62.423a.071.071,0,0,0,.035.076c.1,0,.549.046.661.058l.9.093a3.073,3.073,0,0,1,.772.141c.028.018.051.1.057.219v.054a.067.067,0,0,0,.094,0v0c.006-.129.012-.227.029-.39.016-.141.033-.272.057-.444-.008-.032-.07-.042-.093-.018l-.014.065c-.034.148-.063.206-.1.225a2.616,2.616,0,0,1-.79-.006l-.8-.085a.386.386,0,0,1-.157-.031v-.009c.2-.158.43-.321.748-.55l.45-.325a5.19,5.19,0,0,1,.9-.558,1.275,1.275,0,0,1,.006-.175C54.835,197.93,54.856,197.73,54.884,197.573ZM51.8,206.079a.814.814,0,0,0-.77,0l-.392.18a.568.568,0,0,1-.616-.02.432.432,0,0,1-.145-.592.414.414,0,0,1,.03-.043.691.691,0,0,1,.826-.25c.027,0,.052-.053.039-.083a1.694,1.694,0,0,0-.5-.2,1.162,1.162,0,0,0-.435.423.715.715,0,0,0,.093,1.007.568.568,0,0,0,.07.051.855.855,0,0,0,.87-.012l.323-.155a.591.591,0,0,1,.564-.024.4.4,0,0,1,.163.538.443.443,0,0,1-.047.069.5.5,0,0,1-.639.207c-.029,0-.052.062-.041.086a1.7,1.7,0,0,0,.429.19.5.5,0,0,1,.089-.1,1.5,1.5,0,0,0,.231-.272.682.682,0,0,0-.082-.961C51.839,206.107,51.82,206.093,51.8,206.079Zm-.6,1.835-.064.07c-.151.167-.211.133-.527-.111l-1.07-.824c-.319-.245-.353-.283-.241-.477l.049-.082c-.005-.033-.058-.064-.08-.052-.11.155-.185.259-.283.386s-.174.22-.295.367c-.005.024.044.07.07.062l.071-.07c.158-.163.2-.136.523.109l1.071.824c.32.244.366.289.245.479l-.053.08c0,.027.057.063.081.052.109-.156.185-.26.277-.381s.179-.226.3-.372c0-.021-.047-.072-.072-.06Zm1.7-15.958a1.249,1.249,0,0,0,.782-1.583,1.146,1.146,0,0,0-.044-.11,1.313,1.313,0,0,0-1.676-.8c-.02.008-.041.015-.061.024a1.279,1.279,0,0,0-.743,1.65c.009.025.02.05.031.075a1.3,1.3,0,0,0,1.667.762Zm-1.583-.745a1.141,1.141,0,0,1,.795-1.4l.04-.011a.947.947,0,0,1,1.3.335.757.757,0,0,1,.057.114c.262.676-.267,1.178-.85,1.4a.94.94,0,0,1-1.287-.333.978.978,0,0,1-.052-.1ZM49,208.773l-.419.1a.568.568,0,0,1-.6-.141.43.43,0,0,1-.03-.607c.012-.013.025-.025.038-.037a.691.691,0,0,1,.86-.087c.026,0,.061-.042.055-.07a1.774,1.774,0,0,0-.458-.292,1.191,1.191,0,0,0-.508.335.715.715,0,0,0-.1,1.008.653.653,0,0,0,.056.061.854.854,0,0,0,.855.156l.347-.091a.6.6,0,0,1,.564.086.4.4,0,0,1,.057.559.478.478,0,0,1-.06.059.494.494,0,0,1-.666.081c-.031,0-.063.05-.057.076a1.658,1.658,0,0,0,.384.269.5.5,0,0,1,.1-.079,1.456,1.456,0,0,0,.279-.222.683.683,0,0,0,.1-.96.547.547,0,0,0-.045-.051A.806.806,0,0,0,49,208.773Zm4.727-5.527-.033.056a.416.416,0,0,1-.178.179.353.353,0,0,1-.282-.035l-1-.444a3.666,3.666,0,0,1-.694-.363c-.031-.034-.027-.1,0-.183l.031-.1a.071.071,0,0,0-.091-.031c-.046.125-.084.22-.148.366-.058.128-.115.248-.191.4a.072.072,0,0,0,.083.046l.059-.1c.045-.084.1-.142.141-.149a3.084,3.084,0,0,1,.747.256l.756.336a.988.988,0,0,1,.217.117v.007c-.109.039-.5.149-.648.2l-1.27.4c-.478.149-.644.2-.72.212a.068.068,0,0,0,.007.081c.1.031.508.211.613.259l.829.368a3.085,3.085,0,0,1,.692.368c.021.028.018.109-.014.227l-.014.052a.07.07,0,0,0,.089.032c.045-.122.082-.212.148-.362.059-.132.115-.248.192-.4a.063.063,0,0,0-.083-.045l-.034.056c-.078.131-.124.177-.164.183a2.591,2.591,0,0,1-.749-.249l-.742-.328a.4.4,0,0,1-.141-.079v-.007c.238-.089.508-.173.882-.294l.526-.169a5.263,5.263,0,0,1,1.027-.254,1.255,1.255,0,0,1,.06-.165c.028-.062.11-.245.185-.386,0-.034-.056-.057-.087-.047Zm-32.646.9-1.215.589c-.362.176-.423.2-.538,0l-.048-.082c-.024-.014-.082.023-.082.048.089.167.149.282.215.419s.123.261.2.435c.021.015.085-.008.09-.035l-.036-.089c-.08-.211-.025-.244.336-.423l1.217-.589c.361-.176.412-.193.534,0l.052.08c.03.01.081-.023.082-.048-.09-.168-.15-.283-.22-.424s-.119-.254-.194-.429c-.02-.014-.085.008-.089.036l.031.091C21.486,203.939,21.441,203.969,21.079,204.145Zm-1.636-1.874a9.165,9.165,0,0,1-.964-.108.242.242,0,0,1-.192-.141l-.045-.1a.077.077,0,0,0-.088.039c.05.116.093.225.134.343.049.135.093.273.122.375a.069.069,0,0,0,.092-.024l-.015-.067c-.031-.13-.015-.176.01-.185a.407.407,0,0,1,.151-.017c.175.006.639.031.917.048.219.015.64.034.918.061-.345.323-.7.635-1.055.946a4.649,4.649,0,0,1-.436.357c-.031.007-.062-.015-.128-.141l-.025-.054a.067.067,0,0,0-.087.037v0c.06.147.108.271.164.429s.092.269.122.375a.065.065,0,0,0,.089-.018l0-.006-.016-.066c-.038-.161.019-.241.19-.4l1.328-1.18a4.826,4.826,0,0,1,.418-.335.16.16,0,0,0-.008-.057.081.081,0,0,0-.025-.035c-.212.006-.686-.013-1.066-.04Zm1.323,3.451a2.982,2.982,0,0,1-.687.377c-.034,0-.1-.043-.182-.135l-.035-.038a.072.072,0,0,0-.076.058c.077.1.134.184.222.322.079.122.146.231.234.382.025.019.079-.01.084-.045l-.029-.059c-.067-.137-.08-.2-.064-.238a2.665,2.665,0,0,1,.618-.49l.681-.445a.378.378,0,0,1,.142-.07l0,.006c-.057.248-.134.521-.237.9l-.147.534a5.181,5.181,0,0,1-.349,1,1.1,1.1,0,0,1,.1.141c.037.058.147.226.223.367.029.016.077-.015.084-.046l-.028-.058a.41.41,0,0,1-.052-.247.347.347,0,0,1,.184-.219l.917-.6a3.672,3.672,0,0,1,.684-.383c.045-.007.1.032.154.1l.065.08a.07.07,0,0,0,.076-.059c-.078-.106-.138-.191-.224-.324s-.146-.231-.232-.379a.071.071,0,0,0-.084.045l.055.1c.045.084.07.16.045.2a2.952,2.952,0,0,1-.623.484l-.691.447a.91.91,0,0,1-.217.117l0,0c.027-.112.147-.5.19-.648l.363-1.283c.136-.481.188-.646.218-.719a.07.07,0,0,0-.075-.038c-.076.063-.455.309-.551.37Zm1.017-16.278-.05.09c-.083.141-.155.164-.494.136l-1.612-.126c-.175-.015-.359-.028-.532-.049a.056.056,0,0,0-.054.04.419.419,0,0,1,.054.237c.06.014.118.064.221.167l.788.761c.328.314.512.51.645.642a.253.253,0,0,1,.081.283l-.039.12a.075.075,0,0,0,.09.03c.037-.1.084-.225.134-.339.07-.162.12-.27.167-.358a.062.062,0,0,0-.073-.048l-.012,0-.059.111c-.044.08-.071.089-.114.07a1.5,1.5,0,0,1-.256-.2l-.313-.282c-.063-.056-.064-.082-.027-.169l.227-.526c.045-.1.062-.114.148-.1l.541.051a.784.784,0,0,1,.2.034c.035.016.035.071.01.149l-.034.106a.064.064,0,0,0,.084.034l.007,0c.041-.1.09-.237.163-.4s.123-.277.192-.417C21.864,189.459,21.811,189.427,21.783,189.444Zm-1.387.58-.184.429c-.042.1-.047.1-.115.037l-.512-.482c-.088-.083-.157-.154-.17-.171l0-.007a2.42,2.42,0,0,1,.254.014l.649.057C20.43,189.91,20.44,189.923,20.4,190.024Zm.344,2.009-.044.113c-.079.207-.137.2-.52.088l-1.622-.466c-.121-.035-.125-.033-.094-.141l.075-.259a.76.76,0,0,1,.212-.4.481.481,0,0,1,.293-.015.068.068,0,0,0,.019-.1,2.326,2.326,0,0,1-.538-.212c-.016,0-.032.042-.03.062.08.082.078.117.021.314l-.423,1.477c-.049.169-.08.289-.2.278-.015.008-.024.056-.02.07a4.138,4.138,0,0,1,.5.295.074.074,0,0,0,.054-.087.678.678,0,0,1-.2-.237.771.771,0,0,1,.038-.474l.058-.2c.031-.109.035-.108.148-.076l1.63.469c.383.111.432.141.391.357l-.027.135a.065.065,0,0,0,.088.027h0c.06-.236.093-.364.135-.51s.081-.269.148-.474C20.827,192.042,20.761,192.015,20.74,192.033Zm1.681,16.116a3.4,3.4,0,0,1-.607.482.223.223,0,0,1-.195-.079l-.071-.063a.067.067,0,0,0-.062.071h0c.1.1.17.169.276.286s.192.216.283.329a.072.072,0,0,0,.07-.057l-.058-.075a.238.238,0,0,1-.07-.194,2.729,2.729,0,0,1,.532-.583l.322-.294c.424-.388.886-.526,1.257-.119.391.428.223.84-.229,1.252l-.606.552c-.291.266-.344.3-.507.154l-.066-.062c-.027-.006-.071.042-.063.067.132.133.218.222.323.337s.187.212.309.353c.023.008.076-.029.07-.056l-.057-.075c-.135-.176-.092-.225.2-.493l.662-.6a.908.908,0,0,0,.141-1.488,1,1,0,0,0-.693-.348,1.316,1.316,0,0,0-.846.415Zm-4.275-11.873a.807.807,0,0,0,.681-.361l.261-.341a.57.57,0,0,1,.554-.271.43.43,0,0,1,.405.455.446.446,0,0,1-.005.05.69.69,0,0,1-.613.609c-.023.013-.02.07,0,.091a1.713,1.713,0,0,0,.538-.062,1.185,1.185,0,0,0,.184-.58.715.715,0,0,0-.557-.846.573.573,0,0,0-.083-.012.854.854,0,0,0-.762.419l-.211.288a.6.6,0,0,1-.49.287.4.4,0,0,1-.4-.4.384.384,0,0,1,.009-.083.494.494,0,0,1,.467-.482.076.076,0,0,0,0-.1,1.668,1.668,0,0,0-.467.034.532.532,0,0,1-.031.131,1.425,1.425,0,0,0-.077.348.684.684,0,0,0,.525.81Zm-.334-1.9.023-.093c.057-.217.121-.212.518-.147l1.332.223c.4.067.448.084.438.309l0,.1a.071.071,0,0,0,.094.007c.024-.188.042-.316.071-.472s.051-.278.089-.463a.073.073,0,0,0-.092-.023l-.027.091c-.063.217-.117.215-.513.148l-1.332-.223c-.4-.067-.46-.085-.441-.309l.008-.1c-.011-.025-.08-.029-.1-.008-.024.188-.041.316-.067.465s-.051.283-.091.47a.073.073,0,0,0,.091.024Zm.382,7.246-.005-.06c-.019-.225.035-.244.423-.324l1.341-.273c.389-.079.449-.07.511.137l.036.119a.071.071,0,0,0,.092-.026c-.052-.218-.082-.344-.114-.5l-.071-.334c-.07-.331-.13-.662-.192-1a3.52,3.52,0,0,0-.551-.062.071.071,0,0,0-.007.1.96.96,0,0,1,.415.19,1.092,1.092,0,0,1,.152.465c.067.327.043.413.007.467-.051.071-.175.11-.372.149l-.524.108c-.1.019-.1.009-.126-.1l-.044-.217a1.17,1.17,0,0,1-.039-.289.16.16,0,0,1,.117-.141l.141-.063a.076.076,0,0,0-.023-.1c-.082.016-.22.061-.353.088s-.289.044-.379.062a.075.075,0,0,0,.016.1H18.8c.1,0,.124.022.148.063a1.41,1.41,0,0,1,.087.311l.044.216c.023.112.025.123-.079.141l-.744.152c-.141.03-.149.031-.171-.081l-.055-.267a1.811,1.811,0,0,1-.056-.365c.009-.2.132-.263.3-.353a.074.074,0,0,0-.026-.092,4.066,4.066,0,0,0-.482.161,5.017,5.017,0,0,1,.113.5l.141.7c.032.152.053.282.079.44C18.115,201.658,18.184,201.651,18.194,201.622Zm3.96-13.841a.856.856,0,0,0-.869.034l-.317.163a.6.6,0,0,1-.564.038.4.4,0,0,1-.176-.533.41.41,0,0,1,.046-.071.494.494,0,0,1,.635-.223c.029,0,.051-.063.039-.087a1.657,1.657,0,0,0-.433-.179.5.5,0,0,1-.087.1,1.492,1.492,0,0,0-.224.278.682.682,0,0,0,.108.959.567.567,0,0,0,.056.04.805.805,0,0,0,.764-.015l.388-.189a.568.568,0,0,1,.615,0,.432.432,0,0,1,.159.589c-.009.014-.018.028-.028.042a.689.689,0,0,1-.82.27c-.027,0-.05.054-.037.084a1.747,1.747,0,0,0,.509.185,1.187,1.187,0,0,0,.423-.436.72.72,0,0,0-.187-1.056ZM17.773,199.06c.009-.156.07-.172.432-.194l1.36-.084c.4-.025.448-.021.487.2l.018.094a.072.072,0,0,0,.094-.014c-.019-.177-.031-.313-.04-.472s-.014-.282-.017-.452a.07.07,0,0,0-.094,0l-.007.081c-.017.22-.062.231-.46.256l-.477.029c-.08.005-.084,0-.094-.173a.267.267,0,0,1,.1-.276c.163-.128.415-.3.549-.407a.846.846,0,0,0,.429-.813.629.629,0,0,0-.029-.166.033.033,0,0,0-.046,0l-.007.009a.465.465,0,0,1-.09.269,4.112,4.112,0,0,1-.963.821c-.029.021-.066.043-.09.025a.706.706,0,0,0-.662-.435.565.565,0,0,0-.511.348,1.35,1.35,0,0,0-.071.639c.023.371.05.635.083.844a.064.064,0,0,0,.089.006l0-.006Zm-.071-.722a.559.559,0,0,1,.471-.636.474.474,0,0,1,.075-.006.548.548,0,0,1,.482.16.636.636,0,0,1,.122.384.84.84,0,0,1,0,.262.276.276,0,0,1-.124.019l-.886.055c-.106.007-.12,0-.137-.238Zm10.019-16.9a3.369,3.369,0,0,1-.365-.686.22.22,0,0,1,.113-.177l.071-.055a.065.065,0,0,0-.055-.07c-.111.078-.2.135-.332.22s-.246.149-.373.219a.07.07,0,0,0,.042.081l.084-.043a.235.235,0,0,1,.2-.033,2.778,2.778,0,0,1,.477.628l.231.371c.3.489.357.967-.11,1.258-.494.307-.867.067-1.19-.453l-.434-.7c-.212-.335-.236-.394-.06-.526l.071-.055c.011-.025-.03-.075-.055-.071-.154.106-.258.175-.39.257s-.241.146-.406.239c-.012.023.015.081.042.082l.085-.044c.2-.1.237-.05.446.282l.481.762c.24.383.467.565.726.6a1.071,1.071,0,0,0,.712-.2,1,1,0,0,0,.469-.618,1.325,1.325,0,0,0-.252-.915Zm24.785,13.51a.252.252,0,0,1-.2-.212l-.021-.125c-.019-.021-.079-.009-.094.014.012.1.029.238.037.363.009.178.017.3.016.394a.061.061,0,0,0,.085.01l.01-.01v-.125c0-.091.023-.113.071-.115a1.394,1.394,0,0,1,.319.061l.407.1c.081.021.094.042.1.141l.04.572c.008.113,0,.129-.084.161l-.5.2a.755.755,0,0,1-.2.063c-.037,0-.063-.049-.077-.127l-.019-.11a.065.065,0,0,0-.09.009l0,.006c.012.109.029.253.042.434s.017.3.02.459a.074.074,0,0,0,.1-.007l0-.1c.008-.163.061-.217.379-.352l1.482-.624c.164-.071.334-.141.494-.2a.051.051,0,0,0,.03-.058.441.441,0,0,1-.157-.188.549.549,0,0,1-.274-.046l-1.048-.315C52.937,195.089,52.683,195,52.506,194.944Zm.972.458.675.193a2.288,2.288,0,0,1,.23.075v.007a2.189,2.189,0,0,1-.232.1l-.6.247c-.1.042-.116.035-.124-.075l-.032-.466c-.01-.106-.006-.11.083-.085ZM24.262,185.183a.854.854,0,0,0-.858-.141l-.344.1a.6.6,0,0,1-.564-.075.4.4,0,0,1-.068-.556.432.432,0,0,1,.06-.061.493.493,0,0,1,.664-.094c.029,0,.062-.052.055-.078a1.661,1.661,0,0,0-.388-.261.532.532,0,0,1-.106.083,1.432,1.432,0,0,0-.275.228.683.683,0,0,0-.084.961.568.568,0,0,0,.047.051.809.809,0,0,0,.758.135l.417-.108a.572.572,0,0,1,.6.126.433.433,0,0,1,.038.611.362.362,0,0,1-.034.034.692.692,0,0,1-.858.1c-.027-.005-.059.042-.052.075a1.746,1.746,0,0,0,.461.282,1.182,1.182,0,0,0,.5-.344.716.716,0,0,0,.083-1.009A.655.655,0,0,0,24.262,185.183Zm29.422,7.237-1.332.3c-.388.089-.441.093-.513-.117L51.8,192.5a.074.074,0,0,0-.091.028c.055.206.086.323.121.479l.078.34c.086.381.163.734.2.924a3.12,3.12,0,0,0,.555.037c.024-.006.024-.08,0-.1a.823.823,0,0,1-.424-.16c-.046-.053-.079-.127-.151-.441-.065-.293-.037-.373-.006-.423.055-.083.148-.116.382-.169l1.287-.293c.39-.089.45-.1.518.118l.027.089c.02.018.085-.005.091-.029-.049-.184-.081-.309-.114-.453s-.06-.275-.1-.483a.073.073,0,0,0-.093.013l.013.094c.035.236-.021.257-.411.346ZM43.393,179.759c-.071-.025-.146-.051-.265-.1a2.235,2.235,0,0,1-.508.6l-.573.571c-.153.152-.306.308-.46.444h-.008c-.032-.188-.054-.38-.079-.577l-.127-.97a1.468,1.468,0,0,1,.017-.656c-.1-.025-.2-.056-.3-.091s-.175-.063-.282-.108a.071.071,0,0,0-.045.086l.055.026c.212.1.219.167.135.391-.074.2-.193.494-.314.787-.141.349-.227.54-.33.77s-.166.248-.324.218l-.083-.016a.07.07,0,0,0-.022.092c.124.034.254.075.369.114.136.047.275.1.395.148.029,0,.053-.059.034-.089l-.132-.058c-.137-.058-.138-.123-.048-.389.105-.305.228-.62.314-.836s.163-.408.254-.626h.007c.023.192.034.4.053.6l.086.8a8.121,8.121,0,0,1,.07.825.051.051,0,0,0,.028.026.043.043,0,0,0,.041,0c.12-.141.4-.423.668-.686l.537-.522c.12-.116.352-.353.392-.386h.008l-.5,1.5c-.078.229-.1.286-.282.246l-.107-.024a.071.071,0,0,0-.023.093c.15.043.312.094.438.137s.275.1.423.156a.07.07,0,0,0,.039-.087l-.111-.05c-.165-.071-.127-.168-.077-.353.149-.528.371-1.193.494-1.576.083-.253.135-.311.369-.255l.077.019a.082.082,0,0,0,.027-.092C43.6,179.827,43.483,179.79,43.393,179.759Zm-3.3-.841a.223.223,0,0,1,.2-.062l.091.007a.064.064,0,0,0,.007-.09h0c-.137-.013-.238-.025-.4-.05s-.282-.047-.423-.076a.069.069,0,0,0-.023.088l.094.023c.092.022.156.058.175.107a2.666,2.666,0,0,1-.048.787l-.067.432c-.086.569-.359.966-.9.883-.573-.088-.7-.515-.608-1.119l.125-.81c.06-.39.077-.452.3-.438l.091.006c.024-.011.027-.076.006-.091-.185-.021-.31-.035-.463-.059s-.277-.046-.464-.083c-.024.008-.042.071-.02.089l.092.022c.215.051.212.117.153.507l-.136.886a.9.9,0,0,0,.821,1.246,1,1,0,0,0,.758-.164,1.329,1.329,0,0,0,.4-.857l.065-.423A3.363,3.363,0,0,1,40.089,178.918Zm-2.548,1.938a.456.456,0,0,1-.261-.11,4.139,4.139,0,0,1-.745-1.021c-.019-.031-.038-.071-.018-.092a.7.7,0,0,0,.485-.625.564.564,0,0,0-.307-.538,1.341,1.341,0,0,0-.63-.123c-.374-.007-.635,0-.847.016a.064.064,0,0,0-.01.089l.006.006.12.017c.156.022.166.086.16.447l-.027,1.362c-.007.4-.015.448-.235.471l-.095.009a.073.073,0,0,0,.006.095c.179,0,.315-.006.474,0s.283.008.452.019a.077.077,0,0,0,.009-.1L36,180.768c-.218-.035-.226-.08-.219-.479l.008-.478c0-.08.009-.083.18-.081a.27.27,0,0,1,.267.126c.115.172.266.437.363.579.262.388.454.486.776.494a.554.554,0,0,0,.167-.016.03.03,0,0,0,.015-.041.029.029,0,0,0-.015-.016Zm-1.478-1.238c-.194,0-.251-.011-.263-.023a.32.32,0,0,1-.008-.127l.014-.887c0-.107.014-.121.249-.118a.561.561,0,0,1,.6.52.457.457,0,0,1,0,.074.548.548,0,0,1-.2.469A.626.626,0,0,1,36.063,179.618Zm-2.65-1.113a1.313,1.313,0,0,0-1.148,1.459c0,.023.006.046.009.068a1.279,1.279,0,0,0,1.449,1.084l.079-.014a1.3,1.3,0,0,0,1.114-1.454l-.008-.05a1.25,1.25,0,0,0-1.375-1.112C33.493,178.49,33.453,178.5,33.413,178.505Zm.423,2.474c-.738.111-1.118-.57-1.2-1.129-.123-.821.344-1.164.734-1.222.717-.108,1.091.519,1.183,1.138.108.743-.269,1.145-.72,1.213Zm-7.816,3.378-.1.07c-.179.129-.223.091-.482-.211l-1.1-1.283c-.082-.1-.087-.1,0-.17l.2-.176a.754.754,0,0,1,.4-.212c.07-.005.182.084.252.149.029.005.078-.037.07-.07a2.309,2.309,0,0,1-.332-.476c-.015-.006-.05.019-.059.036.021.112,0,.141-.156.273l-1.168,1c-.133.113-.225.2-.322.12a.1.1,0,0,0-.054.048,4.018,4.018,0,0,1,.258.522.071.071,0,0,0,.091-.04v0a.682.682,0,0,1-.04-.31c.015-.128.169-.27.292-.376l.158-.136c.087-.074.09-.07.167.019l1.1,1.288c.259.3.283.358.129.513l-.1.1c-.011.034.037.079.062.071.18-.164.278-.253.393-.353s.216-.18.385-.315C26.086,184.41,26.048,184.354,26.02,184.357Zm21.1.169c.3-.455.722-1.019.957-1.346.156-.211.224-.254.429-.128l.07.042a.081.081,0,0,0,.054-.079c-.1-.065-.2-.136-.278-.194-.059-.045-.123-.093-.22-.179a2.216,2.216,0,0,1-.667.41l-.721.366c-.192.1-.386.2-.574.282l-.007,0c.027-.189.066-.379.1-.574l.179-.96a1.461,1.461,0,0,1,.219-.62,2.853,2.853,0,0,1-.259-.18c-.076-.057-.146-.115-.232-.189-.035-.006-.071.038-.071.067l.044.043c.167.163.158.226.008.413-.132.162-.337.411-.541.652-.244.287-.384.442-.553.629s-.234.185-.375.108l-.07-.041c-.029,0-.057.052-.051.08.108.071.219.15.317.224.115.086.232.178.33.261.028.007.071-.039.06-.07l-.109-.1c-.111-.1-.094-.16.075-.385.195-.257.409-.519.557-.7s.282-.338.435-.518l.006.005c-.038.19-.092.395-.134.582l-.165.791a7.959,7.959,0,0,1-.189.808.042.042,0,0,0,.019.032.043.043,0,0,0,.039.011c.159-.1.51-.282.847-.446l.669-.329c.15-.071.447-.229.494-.246l.007,0-.94,1.27c-.146.2-.183.243-.343.147l-.1-.057a.071.071,0,0,0-.051.081c.13.086.268.186.375.266s.231.177.353.278c.029,0,.066-.041.062-.071l-.091-.082C46.954,184.764,47.018,184.685,47.123,184.526Zm-14.858-3.273-.094.014c-.224.035-.245-.014-.353-.4l-.365-1.3c-.109-.387-.119-.451.091-.53l.089-.034c.019-.02-.007-.083-.032-.089-.181.059-.3.1-.45.141s-.282.074-.464.118c-.018.017-.007.085.019.094l.093-.019c.22-.042.245.018.353.4l.366,1.3c.108.388.115.441-.093.527l-.085.037a.069.069,0,0,0,.033.089c.18-.059.3-.1.458-.141s.27-.071.455-.117C32.3,181.329,32.291,181.261,32.265,181.253Zm-2.734-1.565a2.374,2.374,0,0,0-.815.217c-.3.125-.576.254-.867.4-.029.028,0,.082.034.089l.081-.023c.156-.04.2.026.307.271l.557,1.33c.154.368.164.412-.027.526l-.077.044a.076.076,0,0,0,.045.085c.161-.076.283-.132.433-.194.123-.052.358-.117.582-.212a1.838,1.838,0,0,0,.714-.494,1.247,1.247,0,0,0,.176-1.3A1.136,1.136,0,0,0,29.531,179.688Zm.271,2.4c-.221.092-.369.113-.491.037a.7.7,0,0,1-.23-.353l-.541-1.294c-.066-.158-.1-.248-.076-.282a.836.836,0,0,1,.326-.2,1.072,1.072,0,0,1,1.46.406,1.055,1.055,0,0,1,.076.168A1.024,1.024,0,0,1,30,181.986a1.009,1.009,0,0,1-.2.1Zm20.225,1.05a19.567,19.567,0,0,0-27.794,27.549l.122.123a19.567,19.567,0,0,0,27.794-27.55Zm-27.3,20.992c-.057-.109-.114-.217-.169-.327h.917v.327Zm.746.066v1.18q-.383-.576-.709-1.18Zm-.945-.456-.053-.107h0v-.688a.323.323,0,0,1,.645,0h0v.795Zm.661,0v-.8a.389.389,0,0,0-.776-.047.369.369,0,0,0,0,.047v.558q-.309-.646-.553-1.32h1.307l.008,0,.3-.162v1.727Zm-.039-1.623H21.84c-.025-.07-.051-.141-.075-.216h1.407l.007,0,2.752-1.51,2.743,1.51.007,0H32.35c0,.071.008.146.012.216H28.7l-.319-.171v0H28.37l-2.425-1.306-.016-.008-.015.008Zm26.837.828v.5c-.047.1-.093.2-.141.295h-.01v-.8a.389.389,0,0,0-.776-.047.369.369,0,0,0,0,.047v.8h-.157v-.8a.389.389,0,0,0-.776-.047.369.369,0,0,0,0,.047v.8H47.98v-.8a.389.389,0,0,0-.776-.047.369.369,0,0,0,0,.047v.8h-.152v-.8a.389.389,0,0,0-.776-.047.369.369,0,0,0,0,.047v.8h-.151v-.8a.389.389,0,0,0-.776-.047.369.369,0,0,0,0,.047v.8H45.2v-.8a.389.389,0,0,0-.776-.047.369.369,0,0,0,0,.047v.8H44.27v-.8a.388.388,0,0,0-.776,0h0v.8h-.153v-.8a.389.389,0,0,0-.776-.047.369.369,0,0,0,0,.047v.8h-.152v-.8a.389.389,0,0,0-.776-.047.369.369,0,0,0,0,.047v.8h-.151v-.8a.388.388,0,0,0-.776,0h0v.8h-.132v-.386a2.581,2.581,0,0,1,.258-1.171h9.681c-.044.123-.091.245-.141.367a.391.391,0,0,0-.384.391Zm.36-.328q-.138.348-.294.688v-.36a.326.326,0,0,1,.294-.334Zm-1.021,1.9a.52.52,0,0,0-.52.52v.479c-.065.093-.128.186-.194.277v-.756a.521.521,0,0,0-1.041,0v1h-.193v-1a.521.521,0,0,0-1.042,0v1h-.193v-1a.521.521,0,0,0-1.042,0v1h-.191v-1a.521.521,0,0,0-1.042,0v1h-.194v-1a.521.521,0,0,0-1.041,0v1h-.193v-1a.521.521,0,0,0-1.041,0v1H41.21v-1a.52.52,0,0,0-.52-.52.557.557,0,0,0-.122.014V204.2h9.045c-.059.109-.119.217-.181.326A.428.428,0,0,0,49.331,204.512Zm.062.07c-.161.282-.335.558-.517.831v-.381a.456.456,0,0,1,.455-.456h0a.457.457,0,0,1,.063.01Zm-8.782,4.9h-.1c0-.236.015-1.1.026-2.145h6.81a15.355,15.355,0,0,1-6.675,4.2v-1.986a.064.064,0,0,0-.064-.064Zm-.936,2.766h.907l.44.479H39.736c0-.022,0-.044-.008-.066l.01-.007C39.754,212.635,39.828,212.517,39.675,212.253Zm-.038.327-.006.01a.064.064,0,0,0-.036.071.173.173,0,0,1,0,.141.1.1,0,0,1-.07.037.061.061,0,0,0-.06.077.166.166,0,0,1-.014.136.116.116,0,0,1-.037.029c-.011-.028-.019-.046-.019-.048a.064.064,0,0,0-.117.05s.015.035.031.081a.141.141,0,0,1-.041.106.214.214,0,0,1-.129.037.542.542,0,0,0-.071-.231.063.063,0,0,0-.089-.018.064.064,0,0,0-.019.089h0a.328.328,0,0,1,.05.211h0v.01c0,.013-.014.084-.136.084a.367.367,0,0,1-.348-.293.609.609,0,0,0-.07-.212.067.067,0,0,0-.017-.02.8.8,0,0,1-.319-.569l.059-.053c.646-.6.762-.6.964-.56l0,.006s.212.247.371.473c.182.257.128.353.127.353Zm-1.552-.365a2.544,2.544,0,0,1-1.805.586h-.024a2.522,2.522,0,0,1-1.607-.6,1.472,1.472,0,0,0-.906-.508.394.394,0,0,1-.06-.009c-.019,0-.015-.008-.015-.011a.566.566,0,0,1,.022-.252,1.5,1.5,0,0,0,.042-.3c0-.231-.054-.962-.07-1.142a.322.322,0,0,0,.1-.106,2.956,2.956,0,0,0,.118-.305,3.911,3.911,0,0,1,.423-.942l.07-.086a1.392,1.392,0,0,1,.956-.611c.142-.02.276-.029.4-.039a1.4,1.4,0,0,0,1.009-.353,6.125,6.125,0,0,0,.928-2.266,8.039,8.039,0,0,0,.257,1.237c.046.176.09.342.125.5a15.037,15.037,0,0,1,.22,1.7,5.9,5.9,0,0,0,.475,2.354,1.27,1.27,0,0,0-.776.618.063.063,0,0,0,.015.087h0a.065.065,0,0,0,.089-.017h0c.262-.387.522-.574.8-.574a.185.185,0,0,1,.147.061.585.585,0,0,1,.084.367c-.224-.036-.4.015-1.023.6Zm.012.517h-.6a2.2,2.2,0,0,0,.494-.282.888.888,0,0,0,.1.282Zm-5.161-6.985-.051-.231c-.089-.391-.254-1.119-.324-1.583a7.861,7.861,0,0,1-.064-1.274v-.212c0-.238-.026-.622-.047-.931-.013-.2-.025-.375-.025-.444a2.909,2.909,0,0,0-.024-.349h0a3.5,3.5,0,0,1-.043-.587c0-.251.075-.859.076-.865a.063.063,0,0,0-.053-.071h-.007l-.013,0a.113.113,0,0,1-.081-.059c-.166-.27.076-1.225.212-1.662a.387.387,0,0,0,.161.029c.23,0,.52-.523.944-1.425l.09-.19.118-.245c.353-.732,1.184-2.447,1.374-2.792.211-.389,1.674-2.857,2.051-3.306.059-.07.122-.152.194-.248a2.652,2.652,0,0,1,1.6-1.226,1.214,1.214,0,0,0,.181-.013,1.566,1.566,0,0,1,.227.017c.726.109.911.375.959.517a1.093,1.093,0,0,0-1.244.291c-.606.672-.729,4.205-.729,4.239,0,.2-.057.869-.091,1.251-.141-.52-1.053-1.231-1.259-1.388.023-.141.141-.685.212-1.032a10.8,10.8,0,0,1,1.066-2.916h0a.063.063,0,0,0-.019-.087h0a.062.062,0,0,0-.087.02h0a10.946,10.946,0,0,0-1.083,2.956c-.052.239-.22,1.02-.22,1.088a.074.074,0,0,0,.025.051c.075.055.172.132.282.222-.059.306-.487,2.479-.676,3.128a17.817,17.817,0,0,1-.825,2.178c-.19.381-.879,1.623-1.167,2.046a4.557,4.557,0,0,0-.831,2.785h0a.062.062,0,0,0,.059.067.063.063,0,0,0,.067-.059.057.057,0,0,0,0-.013,4.444,4.444,0,0,1,.806-2.705c.292-.434.984-1.681,1.175-2.064a18.006,18.006,0,0,0,.835-2.2c.179-.617.57-2.589.664-3.069.412.358.9.863.865,1.155a1.529,1.529,0,0,1-.594.909l-.087.078a3.736,3.736,0,0,0-.722,1.736,5.669,5.669,0,0,0,.418,2.795,9.11,9.11,0,0,0,.631,1.309,4.5,4.5,0,0,1,.325.652,1.991,1.991,0,0,1-.045,1.188l-.31,1.03a1.4,1.4,0,0,0-.141.447,7.7,7.7,0,0,1-1.024,2.771,1.3,1.3,0,0,1-.932.319c-.121.008-.26.019-.409.039a1.514,1.514,0,0,0-1.037.658l-.07.083a3.972,3.972,0,0,0-.447.981c-.048.133-.089.247-.11.287a.241.241,0,0,1-.212.1c-.1-.011-.185-.1-.235-.253a2.754,2.754,0,0,1-.079-1.149,10.7,10.7,0,0,0,.07-1.2,12.647,12.647,0,0,0-.267-1.57Zm-.531-2.008h-.188v-.8a.389.389,0,0,0-.776-.047.369.369,0,0,0,0,.047v.8H31.29v-.8a.389.389,0,0,0-.776-.047.369.369,0,0,0,0,.047v.8h-.151v-.8a.389.389,0,0,0-.776-.047.369.369,0,0,0,0,.047v.8h-.152v-.8a.389.389,0,0,0-.776-.047.369.369,0,0,0,0,.047v.8h-.283v-1.723l.3.158.007,0h3.683c0,.1.007.191.007.268v.212A9.068,9.068,0,0,0,32.4,203.739Zm-.253-.795v.795h-.646v-.8a.323.323,0,0,1,.646,0Zm-.929,0v.795h-.645v-.8a.323.323,0,0,1,.645,0h0Zm-.928,0v.795H29.65v-.8a.323.323,0,0,1,.645,0h0Zm-.929,0v.795h-.645v-.8a.323.323,0,1,1,.645-.03.15.15,0,0,1,0,.03Zm3.047.861c.007.05.012.1.02.151s.017.115.028.177H28.376V203.8Zm.06.394c.023.127.05.262.078.4a.516.516,0,0,0-.236.436v1h-.164v-1.007a.521.521,0,0,0-1.042,0v1h-.193v-1a.521.521,0,0,0-1.042,0v1h-.192v-1a.522.522,0,0,0-1.043,0v1h-.263V204.2Zm-.092,1.84v-1.007a.451.451,0,0,1,.185-.365c.07.328.141.657.193.877l.05.231c.014.061.033.151.056.261Zm.5.066c.035.174.076.381.112.58h-.458v-.58Zm-1.7-.066v-1.007a.455.455,0,0,1,.91-.036v1.04Zm.762.066v.58h-.61v-.58Zm-2-.066v-1.007A.455.455,0,0,1,30.85,205v1.04Zm.761.066v.58h-.61v-.58Zm-2-.066v-1.007a.455.455,0,1,1,.91,0v1Zm.76.066v.58h-.609v-.58Zm.067,0h.494v.58h-.494Zm1.235,0h.494v.58h-.494Zm1.235,0h.466v.58H32Zm-3.212,0v.58h-.415v-.58Zm4.211.646a4.71,4.71,0,0,1,.07.528h-4.7v-.528Zm-.052-13.886-.2.22c-.323.372-.626.722-.87.722-.341,0-1.054-.711-1.29-1.14l0-.006a7.613,7.613,0,0,1-.376-.693,6.624,6.624,0,0,0-1.341-2.093,5.9,5.9,0,0,0-1.058-.159c-.572-.182-1.2-.4-1.363-.471h0c.016-.012.082-.043.265.023a.062.062,0,0,0,.077-.03s.042-.056.193-.031c-.006,0,.171.046.171.046a.065.065,0,0,0,.064-.02s.054-.055.187-.021c.176.045.94.1.972.107a.054.054,0,0,0,.018,0,4.047,4.047,0,0,1,.648-.083c.571-.015.62.212.644.321v.017a1.34,1.34,0,0,0,.2.378,9.992,9.992,0,0,0,1.314,1.421,5.768,5.768,0,0,1,.558.611.134.134,0,0,0,.014.019,2.434,2.434,0,0,1,.4.665.063.063,0,0,0,.121-.037,2.443,2.443,0,0,0-.4-.686c.175-.338.386-.663.44-.744a.833.833,0,0,1,.625.163,2.182,2.182,0,0,0,0,1.5Zm-7.268-4.509a.4.4,0,0,0,.185.271.8.8,0,0,0,.434.109h0l1.046.023a.063.063,0,0,0,.063-.063.064.064,0,0,0-.063-.064l-.665-.014a.086.086,0,0,1-.026-.08l3.469.07a.083.083,0,0,1-.007.038.3.3,0,0,1-.2.127.061.061,0,0,0-.045.053c0,.014-.043.328-.338.328a.07.07,0,0,0-.039.015,1.258,1.258,0,0,0-.456-.057,4.177,4.177,0,0,0-.66.083c-.088-.006-.786-.062-.941-.1a.339.339,0,0,0-.283.033l-.145-.039a.346.346,0,0,0-.294.052.389.389,0,0,0-.341,0,.161.161,0,0,0-.035.034,1.093,1.093,0,0,1-.891-.461.6.6,0,0,1,.192-.834l.02-.013a.533.533,0,0,1,.531-.025.493.493,0,0,1,.16.141.406.406,0,0,0-.184-.077.465.465,0,0,0-.4.152.4.4,0,0,0-.08.292Zm3.413-1.567v-.252a.721.721,0,0,0,.024.112l.014.044a1.38,1.38,0,0,1,.088.617.064.064,0,1,0,.126.017,1.3,1.3,0,0,0-.044-.515,1.776,1.776,0,0,1,.088-.927,1.055,1.055,0,0,0,.133-.524,1.251,1.251,0,0,1,.09.937.063.063,0,0,0,.115.046c.007-.008.018-.025.034-.043a.714.714,0,0,0-.059.365,2.1,2.1,0,0,0,.091.423,1.991,1.991,0,0,1,.1.746.969.969,0,0,1-.266.608l-.021.026-.458-.009a1.034,1.034,0,0,1-.223-.658,1.547,1.547,0,0,1,.084-.368,1.231,1.231,0,0,0,.081-.449c0-.074,0-.138,0-.2Zm4,4.611c.16-.149.9-1.108.926-1.148a.062.062,0,0,0-.01-.088h0a.064.064,0,0,0-.089.012c-.007.01-.669.87-.877,1.1a1.006,1.006,0,0,0-.673-.2c.049-.286.244-1.2.769-1.279.266-.041.45-.063.612-.085.253-.032.454-.057.838-.132a5.787,5.787,0,0,0,2.046-.948c.1-.054.2-.112.306-.172a2.48,2.48,0,0,1,.935-.4,3.768,3.768,0,0,0-.928.969l-.353.51-.013.019c-.057.064-1.287,1.411-1.666,1.808l-.4.409c-.344.353-.7.719-.817.868l-.091.114c-.108.134-.247.308-.371.479A2.146,2.146,0,0,1,33.1,191.4Zm2.417-4.214a.247.247,0,0,0-.157-.141c.161-.066.309-.135.408-.18l.091-.041a.063.063,0,0,0,.034-.082h0a.062.062,0,0,0-.081-.035h0l-.1.042a4.373,4.373,0,0,1-1.091.39.243.243,0,0,1-.2-.084.267.267,0,0,1-.057-.179.346.346,0,0,0-.019-.237.182.182,0,0,0-.16-.1.2.2,0,0,1,.02-.08.6.6,0,0,1,.134-.027.064.064,0,0,0-.009-.127h0a.783.783,0,0,0-.179.038.1.1,0,0,1-.08-.089.254.254,0,0,0,.057-.212h.021a.191.191,0,0,0,.122-.052.127.127,0,0,0,.034-.1.064.064,0,0,0-.062-.065.064.064,0,0,0-.065.062v.011h0a.066.066,0,0,1-.032.012h-.107a.3.3,0,0,0-.1.024.444.444,0,0,1-.156.032c-.041,0-.054-.015-.058-.021a.12.12,0,0,1-.013-.091c.006-.026.052-.172.1-.314a4.215,4.215,0,0,0,.159-.539c0-.045-.049-.271-.082-.418.536.126,1.094.261,1.468.358a1.26,1.26,0,0,0,.621.609v0h0a.237.237,0,0,0,.141.122.192.192,0,0,0,.158-.031c.053.012.1.024.142.035a.328.328,0,0,1-.3.137h0a.063.063,0,0,0-.026.124.431.431,0,0,0,.339-.1.309.309,0,0,1,.06.259.95.95,0,0,1-.032.107,1.079,1.079,0,0,0,.3,1.283c.3.265.423.5.381.7-.081.045-.168.1-.26.151a5.153,5.153,0,0,1-1.835.694c-.292.048-.56.078-.817.106-.2.023-.41.046-.626.078a1.668,1.668,0,0,1,.77-.722,1.965,1.965,0,0,1,.524-.059,1.748,1.748,0,0,0,.353-.03.5.5,0,0,0,.348-.262,2.784,2.784,0,0,0-.085-.966Zm2.524.486a1.6,1.6,0,0,0,.644.353c-.052.019-.1.039-.15.062a.074.074,0,0,0-.03-.033h0a1.322,1.322,0,0,0-.383-.129,1.65,1.65,0,0,1-.625-.879,1.67,1.67,0,0,1-.011-.387c0-.039.006-.083.008-.136a.544.544,0,0,0-.087-.316l.127-.031a1.309,1.309,0,0,1,.121.721,1.022,1.022,0,0,0,.388.772Zm-1.515-1.915a.385.385,0,0,0,.024-.032c.291.094.323.163.333.212.016.091.033.191.048.3a.846.846,0,0,0,.182,1,1.126,1.126,0,0,1,.353.8c-.061.026-.124.056-.19.089a1.026,1.026,0,0,0-.434-.725.956.956,0,0,1-.265-1.15c.015-.045.027-.084.035-.117a.444.444,0,0,0-.084-.374Zm-.211-.674a1.475,1.475,0,0,0,.282.2c.07.043.173.107.181.135h0c.008.029.015.06.023.093a1.069,1.069,0,0,0-.362-.18,1.135,1.135,0,0,1-.564-.33.519.519,0,0,1,.22-.256,1.01,1.01,0,0,0,.221.333Zm-.091-.359a.186.186,0,0,1,.033,0l.283.12a.809.809,0,0,1,.176.364l-.059-.036a1.53,1.53,0,0,1-.256-.183.911.911,0,0,1-.175-.272Zm.177.731a.849.849,0,0,1,.4.231,2.608,2.608,0,0,0-.549-.172,1.155,1.155,0,0,1-.725-.521c.112.031.195.056.239.071a1.205,1.205,0,0,0,.639.388Zm.8,1.687a.712.712,0,0,1-.164-.841l.225-.055.006,0a.339.339,0,0,1,.1.271c0,.051,0,.091-.007.131a1.874,1.874,0,0,0,.01.41,1.546,1.546,0,0,0,.543.855,1.2,1.2,0,0,0-.315.066,1.325,1.325,0,0,0-.394-.844Zm-.154-.973q-.019-.126-.039-.24h0v-.005q-.013-.087-.03-.165h0v-.007c-.026-.135-.051-.252-.077-.353h0v0a2.483,2.483,0,0,0-.153-.46,5.789,5.789,0,0,0,.572.2,1.654,1.654,0,0,0,.232.913Zm-.448-1.435a.13.13,0,0,0-.047-.019c-.576-.24-1.233-.547-1.448-.669a1.182,1.182,0,0,1-.536-.5.483.483,0,0,0-.444-.316,4.064,4.064,0,0,0-.76.232c.224-.108.565-.274.911-.455l.321-.172a3.848,3.848,0,0,1,.824-.38,1.71,1.71,0,0,1,1.4.3,1.741,1.741,0,0,1,.861,1.421,1.308,1.308,0,0,1-.323.836,6.5,6.5,0,0,1-.762-.28Zm-2.475-1.379a.36.36,0,0,1,.329.241,1.288,1.288,0,0,0,.589.56c.165.093.564.283,1,.478a.629.629,0,0,0-.274.3c-.268-.088-1.148-.3-1.955-.491h0c-.715-.167-1.371-.313-1.481-.33a.429.429,0,0,1-.071-.015l.9-.424a6.244,6.244,0,0,1,.962-.322Zm.115,5.915c.259-.028.529-.058.824-.109a5.059,5.059,0,0,0,.8-.2,5.337,5.337,0,0,1-1.3.49c-.38.07-.578.1-.83.131-.162.02-.347.044-.615.085l-.022,0a.564.564,0,0,1,.486-.317c.224-.038.444-.062.654-.085Zm-.527,3.555.091-.115c.114-.141.467-.508.81-.858l.4-.409c.206-.216.663-.712,1.046-1.129-.4.59-.8,1.189-1.028,1.613a30.863,30.863,0,0,1-2.133,3,2.2,2.2,0,0,1,.236-1.293,6.143,6.143,0,0,1,.583-.813Zm-.777,2.241a30.014,30.014,0,0,0,2.2-3.08c.331-.61,1.014-1.595,1.564-2.387l.353-.51a3.35,3.35,0,0,1,1.051-1.035,1.106,1.106,0,0,1,.3.1,3.824,3.824,0,0,0-1.086,1.072c-.071.1-.134.177-.19.243-.392.464-1.844,2.922-2.065,3.326-.191.348-1.023,2.066-1.378,2.8l-.118.244-.09.191c-.174.37-.635,1.353-.829,1.353s-.252-.11-.353-.783a2.115,2.115,0,0,1,.645-1.536Zm7.38-1.1a5.766,5.766,0,0,1-.052,2.079c-.18.98-.272,1.758-.272,1.875s.1.246.364.5l-.141.533-.008.006-.051.047a.066.066,0,0,0-.019.059l.077.38a.058.058,0,0,0,.019.034l.328.306a.217.217,0,0,1,.071.248.135.135,0,0,1-.106.1c-.063,0-.231-.165-.331-.263-.034-.034-.066-.064-.1-.092a2.263,2.263,0,0,0-.309-.243c-.382-.252-.442-1.034-.446-1.077.007-.148.015-.272.022-.365a34.882,34.882,0,0,0,.019-4.561,27.127,27.127,0,0,1-.164-2.762v-.131c-.007-.466-.03-1.559.457-1.888a.779.779,0,0,1,.763.01s.158.1.212.766a13.555,13.555,0,0,1-.2,2.706l-.014.086a4.945,4.945,0,0,0-.116,1.649Zm3.377-7.319a.063.063,0,0,0-.077.046h0c-.043.177-.282,1.068-.328,1.258-.028,0-.056-.006-.083-.006a3.408,3.408,0,0,1-.061-1.037c.071-.16.762-1.346,1.052-1.843l-.078,1.993a2.394,2.394,0,0,1-.588.951,1.141,1.141,0,0,0-.118-.033c.056-.212.282-1.078.327-1.253a.062.062,0,0,0-.04-.079h0Zm-.087,1.534a.181.181,0,0,1,.053.175.187.187,0,0,1-.165.094.873.873,0,0,1-.184-.022l-.189-.044h-.005c-.036-.009-.07-.021-.1-.033a.157.157,0,0,1-.112-.141c0-.055.047-.1.124-.12a.963.963,0,0,1,.588.087Zm-.455.342c.044.012.089.022.131.029h0l-2.073,7.776-.008.007c-.047.041-.114.1-.191.175Zm-1.9,7.931a2.33,2.33,0,0,1-.494,2.237,1.586,1.586,0,0,1-.227-1.27A2.4,2.4,0,0,1,41.252,196.457Zm-.1,2.918-.04-.086h1.4c0,.174-.041.663-.448.717a.063.063,0,0,0-.008.124.908.908,0,0,1,.686.909.968.968,0,0,1-.643.777.98.98,0,0,1-1.032-.208.592.592,0,0,1-.183-.676.713.713,0,0,1,.583-.451.847.847,0,0,1,.616.212.338.338,0,0,1,.071.291c-.041.23-.2.331-.494.311h-.025a.064.064,0,0,0-.057.07.063.063,0,0,0,.057.056h.017c.45.032.589-.208.625-.415a.463.463,0,0,0-.1-.4.97.97,0,0,0-.714-.259.837.837,0,0,0-.7.532.7.7,0,0,0,.212.814.821.821,0,0,0,.086.07c-.593.292-.615,1.438-.615,1.576,0,1.753-.052,5.6-.06,6.138H38.529a.064.064,0,0,0-.045.019c-.018-.158-.035-.319-.051-.481a1.643,1.643,0,0,0,.1-.555c.014-.188.125-.948.244-1.751s.238-1.615.283-2.018a.048.048,0,0,0,.013-.023l.821-3c.052.193.118.4.2.635a.063.063,0,0,0,.045.039.071.071,0,0,0,.058-.015l.132-.125a.061.061,0,0,0,.012-.077,3.6,3.6,0,0,1-.33-.94l.282-1.051a.4.4,0,0,0,.225.117.222.222,0,0,0,.152-.071.4.4,0,0,0,.26.153.1.1,0,0,0,.066-.023.088.088,0,0,0,.031-.07c0-.071.075-.534.126-.831A.06.06,0,0,0,41.151,199.375Zm6.166,6.661h-.909v-1a.455.455,0,1,1,.909,0h0Zm.414.066v.579h-.494V206.1Zm-.559,0v.579h-.61V206.1Zm-.676,0v.579H46V206.1Zm-.412-.066h-.911v-1a.455.455,0,0,1,.911,0Zm-.147.066v.579h-.611V206.1Zm-.676,0v.579h-.494V206.1Zm-.412-.066h-.91v-1a.455.455,0,1,1,.91,0Zm-.147.066v.579h-.611V206.1Zm-.676,0v.579h-.494V206.1Zm-.413-.066H42.7v-1a.455.455,0,0,1,.909-.036.216.216,0,0,1,0,.036Zm-.146.066v.579h-.611V206.1Zm-.677,0v.579H42.3V206.1Zm-.411-.066h-.91v-1a.455.455,0,1,1,.91,0Zm-.148.066v.579h-.61V206.1Zm-.674,0v.579h-.494V206.1Zm-.412-.066h-.589c.005-.494.008-.988.012-1.442a.506.506,0,0,1,.122-.018.456.456,0,0,1,.455.456ZM41,206.1v.579h-.448c0-.191,0-.385.006-.579Zm-2.7-4.121a4.49,4.49,0,0,0-.334-.678,7.472,7.472,0,0,1-.683-1.481,1.9,1.9,0,0,1,.528-1.646c.036-.047.071-.092.1-.133a1.334,1.334,0,0,0,.2-.476v-.006a3.7,3.7,0,0,0,.075-.63c0-.064.007-.12.012-.162.024-.223.2-1.885.225-2.177l.005-.055c.032-.353.1-1.174.1-1.416,0-.329.162-3.559.7-4.154a1.126,1.126,0,0,1,.212-.184,3.19,3.19,0,0,0-.353,1.852v.128a27.059,27.059,0,0,0,.164,2.774,34.532,34.532,0,0,1-.019,4.538c-.05.624-.087,2.607-.087,3.588,0,.643-.079,1.473-.135,2.078-.033.344-.058.613-.058.735,0,.174-.16,1.262-.3,2.223-.119.806-.232,1.567-.245,1.76,0,.061-.009.115-.015.163a14.573,14.573,0,0,0-.211-1.639c-.036-.158-.082-.325-.127-.5a4.736,4.736,0,0,1-.246-1.779.033.033,0,0,0,0-.014h0a1.3,1.3,0,0,1,.129-.4l0-.011.312-1.035A2.139,2.139,0,0,0,38.3,201.981Zm-.676-5.6.043.077a1.665,1.665,0,0,1,.321,1.074,1.209,1.209,0,0,1-.18.434l-.1.131a2.443,2.443,0,0,0-.6,1.285,5.949,5.949,0,0,1-.179-2.117,3.888,3.888,0,0,1,.577-1.52A1.1,1.1,0,0,0,37.626,196.385Zm.045-.818.029-.027a1.881,1.881,0,0,0,.581-.762c-.053.534-.186,1.787-.206,1.976,0,.044-.008.1-.011.168a.313.313,0,0,1,0,.06,3.706,3.706,0,0,0-.282-.585l-.043-.077A1.082,1.082,0,0,1,37.671,195.567Zm2.077,5.115-.508,1.885c.022-.313.035-.625.035-.9,0-.667.018-1.8.044-2.646a1.133,1.133,0,0,0,.4.618,2.262,2.262,0,0,1,.247.188A1.4,1.4,0,0,0,39.748,200.682Zm.236-.388.1-.36.02.02c.033.032.062.061.091.088l-.223.83A2.329,2.329,0,0,1,39.984,200.294Zm-.148,1.129-.725,2.652c.009-.1.018-.2.029-.318.014-.154.03-.321.045-.5l.59-2.187a3.455,3.455,0,0,0,.061.347Zm.25.446c.053.131.1.228.128.282l-.026.026c-.039-.11-.073-.213-.1-.31Zm.822-1.661a.33.33,0,0,1-.11-.071c-.034-.032-.041-.054-.041-.059l0-.021a.329.329,0,0,0-.01-.225l.055-.3a.063.063,0,0,0-.01-.046l-.169-.261a1.278,1.278,0,0,1,.265-.123l.141.308c-.019.121-.1.63-.117.793Zm-.24-.67-.026.15-.178-.165.057-.212Zm-.057-.571.05-.187a.456.456,0,0,0,.046.06l0,.006Zm.111.065c.119-.147.253-.3.392-.441a2.087,2.087,0,0,1,1.764-.338l.148.022a2.556,2.556,0,0,0,.487.023,3.118,3.118,0,0,1-2.411.656h-.059a.763.763,0,0,0-.319.076Zm-.152-.4-.158.6c-.032.044-.061.087-.089.128l-.037-.181.193-.736a1.594,1.594,0,0,0,.091.191ZM34.687,212.4a2.251,2.251,0,0,1-.9.046.984.984,0,0,0-.568.04l-.154.037a.35.35,0,0,1-.307-.048.236.236,0,0,1-.09-.149.7.7,0,0,1,.2-.05.963.963,0,0,0,.243-.055c.134-.06.621-.323.73-.382a1.57,1.57,0,0,1,.72.454A1.4,1.4,0,0,0,34.687,212.4Zm4.906-.276c-.161-.222-.357-.451-.36-.455a.741.741,0,0,0-.113-.508.3.3,0,0,0-.2-.1c-.224-.151-.343-.759-.428-1.457a.067.067,0,0,0,.034.01h2.02v2a.057.057,0,0,0,0,.026v.488Zm.949-4.85c0-.173,0-.353.007-.529h7.328q-.226.27-.464.529Zm7.255-.6V206.1h.592l-.029.039c-.141.184-.282.363-.428.54Zm-.154-.645v-1a.454.454,0,1,1,.909,0h0v.847l-.113.154Zm-7.071-1.9V203.8h9.243c-.056.11-.113.219-.171.328Zm.2-.394v-.8a.323.323,0,0,1,.645,0v.8Zm.929,0v-.8a.323.323,0,0,1,.645,0v.8Zm.929,0v-.8a.322.322,0,1,1,.644,0v.8Zm.929,0v-.8a.323.323,0,0,1,.645,0v.8Zm.929,0v-.8a.322.322,0,1,1,.644-.03.15.15,0,0,1,0,.03v.8Zm.927,0v-.8a.323.323,0,0,1,.646,0v.8Zm.929,0v-.8a.323.323,0,0,1,.645,0v.8Zm.929,0v-.8a.322.322,0,1,1,.644-.03v.829Zm.928,0v-.8a.323.323,0,0,1,.646-.03v.829Zm.929,0v-.8a.323.323,0,1,1,.645-.03.15.15,0,0,1,0,.03v.8Zm-8.255-1.623a.609.609,0,0,1,.315-.252,1.107,1.107,0,0,0,.951.071c.03-.012.06-.024.089-.038h8.387c-.025.07-.049.144-.075.216Zm1.481-.282a1.131,1.131,0,0,0,.24-.2h8.114c-.022.065-.043.131-.064.2Zm.3-.263a.987.987,0,0,0,.216-.515.968.968,0,0,0-.607-.975.9.9,0,0,0,.376-.854.064.064,0,0,0-.064-.06H41.052l-.039-.085H41.1c1.614.04,2.313-.423,2.61-.823a.059.059,0,0,0,0-.07.063.063,0,0,0-.066-.029,2.114,2.114,0,0,1-.61-.007l-.141-.023a2.436,2.436,0,0,0-1.411.1l.01-.009c.152-.141.3-.271.443-.4.106,0,.59-.017,1.005.013a1.379,1.379,0,0,0,1.305-.411c.084-.065.178-.141.29-.224a.062.062,0,0,0,.017-.081.065.065,0,0,0-.079-.029,1.208,1.208,0,0,1-.52.06l-.137-.017a3.128,3.128,0,0,0-1.066,0c.161-.131.316-.25.465-.359.02,0,.51.07.794.077a1.271,1.271,0,0,0,1.227-.8.064.064,0,0,0-.023-.064.062.062,0,0,0-.07-.006,1.869,1.869,0,0,1-.591.191H44.5c-.116,0-.26,0-.4.008a6.044,6.044,0,0,0,.688-.536c.036,0,.555.017.7,0a1.394,1.394,0,0,0,.993-.77.064.064,0,0,0-.025-.087.061.061,0,0,0-.03-.008,3.7,3.7,0,0,0-.612.042,1.834,1.834,0,0,0-.36.113,5.221,5.221,0,0,0,.341-.494l.015-.018h0a.491.491,0,0,1,.427-.24,1.073,1.073,0,0,0,1.126-.741.06.06,0,0,0-.008-.064.065.065,0,0,0-.062-.024s-.369.071-.666.141a1.063,1.063,0,0,0-.481.26,5.558,5.558,0,0,0,.283-.87c.493-.41.466-.665.364-1.008a2.005,2.005,0,0,1-.07-.353.063.063,0,0,0-.069-.057.056.056,0,0,0-.029.01.937.937,0,0,0-.407.7,2.129,2.129,0,0,0,.084.674,4.9,4.9,0,0,1-.171.581,2.343,2.343,0,0,0-.3-.873.062.062,0,0,0-.049-.03.063.063,0,0,0-.053.023.847.847,0,0,0,.158,1.187l0,0a.184.184,0,0,1,.036.188,5.208,5.208,0,0,1-.511.847,1.526,1.526,0,0,0,.093-.481,2.035,2.035,0,0,0-.186-.786.06.06,0,0,0-.039-.034.063.063,0,0,0-.05,0c-.59.337-.4,1.208-.271,1.514a.645.645,0,0,1-.091.4,5.792,5.792,0,0,1-.681.57,2.125,2.125,0,0,0,.154-.863v-.028a2.983,2.983,0,0,1,.1-.494.062.062,0,0,0-.081-.077,1.436,1.436,0,0,0-.9,1.231c0,.348.008.671.008.7-.2.139-.425.3-.663.489a2.474,2.474,0,0,0,.215-.837,4.19,4.19,0,0,1,.134-.541.065.065,0,0,0-.043-.08.067.067,0,0,0-.048.005,2.576,2.576,0,0,0-1.018.949,1.676,1.676,0,0,0,.033,1.105q-.324.282-.677.6c-.1.093-.2.191-.3.293a2.322,2.322,0,0,0,.233-2.087l2.082-7.768a.525.525,0,0,0,.1,0,.3.3,0,0,0,.27-.174.3.3,0,0,0-.076-.3.164.164,0,0,0-.05-.036c.528-.642.615-.987.582-1.037a.061.061,0,0,1,.011.039l.088-2.247a.061.061,0,0,0-.045-.063.065.065,0,0,0-.071.028c-.044.076-1.092,1.866-1.185,2.076a3.273,3.273,0,0,0,.048,1.09.647.647,0,0,0-.088.016.263.263,0,0,0-.216.237.282.282,0,0,0,.195.269l.062.021L40.827,196.7h0a1.823,1.823,0,0,0-.418.691,1.566,1.566,0,0,0,0,.821l-.017.064c-.141-.136-.274-.282-.274-.359s.085-.838.27-1.852a5.926,5.926,0,0,0,.058-2.116,4.822,4.822,0,0,1,.111-1.615l.014-.085a13.656,13.656,0,0,0,.2-2.738c-.046-.592-.176-.785-.247-.847-.005-.136-.1-.569-1.081-.715a1.518,1.518,0,0,0-.431-.005,1.4,1.4,0,0,1-.889-.371.906.906,0,0,1-.344-.671,1.491,1.491,0,0,0-.121-.76h0a.064.064,0,0,0,.037-.1,1.6,1.6,0,0,1-.255-.937,1.265,1.265,0,0,0,.3-.52l.09.075-.018.081a.065.065,0,0,0,.022.063l.877.692a.065.065,0,0,0,.052.012.063.063,0,0,0,.042-.031,3.1,3.1,0,0,0-.687-3.619,15.254,15.254,0,0,1,12.607,19.707Zm-.165-4.227h0a2.512,2.512,0,0,1,1.312-.088c.052.006.1.013.141.017a1.278,1.278,0,0,0,.29,0l-.063.05a1.267,1.267,0,0,1-1.219.385c-.311-.022-.66-.021-.865-.017C42.223,197.567,42.357,197.451,42.487,197.342Zm-.32-.878a2.184,2.184,0,0,1,.826-.807,3.057,3.057,0,0,0-.094.411,1.782,1.782,0,0,1-.46,1.145l-.01.013c-.079.065-.16.133-.242.2a1.535,1.535,0,0,1-.019-.966Zm1.628-.092a1.889,1.889,0,0,1,.705-.077h.058a1.492,1.492,0,0,0,.51-.141,1.251,1.251,0,0,1-1.059.565,5.959,5.959,0,0,1-.647-.058c.154-.108.3-.205.434-.289Zm-.2-.642a1.337,1.337,0,0,1,.695-1.062,2.1,2.1,0,0,0-.071.4v.028a1.293,1.293,0,0,1-.363,1.088v0l-.112.071h-.005a.276.276,0,0,0-.037.022l-.008.006-.087.055c-.007-.119-.011-.36-.011-.614Zm1.481-.79c-.1-.249-.276-1,.158-1.317a1.5,1.5,0,0,1-.136,1.519h0a.078.078,0,0,0-.011.02.408.408,0,0,0-.007-.222Zm.153.257a1.562,1.562,0,0,1,.606-.258,3.15,3.15,0,0,1,.475-.039,1.224,1.224,0,0,1-.842.611,5.4,5.4,0,0,1-.547.006.169.169,0,0,0,.024-.022.073.073,0,0,0,.024-.022h0c.091-.088.178-.178.264-.276Zm.748-1.552a.731.731,0,0,1-.212-.939,1.849,1.849,0,0,1,.236.97.38.38,0,0,0-.02-.034Zm.037.444a1.08,1.08,0,0,1,.635-.478c.19-.041.408-.086.539-.112a.917.917,0,0,1-.957.55.7.7,0,0,0-.213.037Zm.329-1.91a.8.8,0,0,1,.269-.537,1.688,1.688,0,0,0,.057.263c.085.288.117.488-.267.824a1.94,1.94,0,0,1-.054-.553Zm-7.61-6.828-.786-.619.017-.079a1.824,1.824,0,0,0-.381-1.743.063.063,0,0,0-.091.088h0a1.725,1.725,0,0,1,.373,1.527l-.071-.06-.016-.01a1.616,1.616,0,0,0,.037-.278,1.866,1.866,0,0,0-.921-1.534,1.833,1.833,0,0,0-1.5-.318,2.384,2.384,0,0,0-.555.23l-.085-.084a2.461,2.461,0,0,1,.551-.23h0a.063.063,0,0,0-.032-.122,2.076,2.076,0,0,0-.752.367l-.681-.616a.043.043,0,0,0,0-.016,3.742,3.742,0,0,1,3.8-.188A2.937,2.937,0,0,1,38.73,185.351Zm-4.247-2.729h0a.078.078,0,0,0,.02.011h.007a.038.038,0,0,0,.015,0h.009l.013,0,.009,0h0l.1-.07.06.06-.186.1-.322.172c-.574.3-1.149.564-1.154.569a.062.062,0,0,0-.034.037.061.061,0,0,0,.005.051l.019.034-.879.412-.01.006a.117.117,0,0,0-.05.12c.017.077.115.1.2.114.107.017.74.157,1.437.32.047.2.092.417.094.449s-.1.316-.154.5-.094.3-.1.326a.233.233,0,0,0,.038.2.2.2,0,0,0,.156.071.551.551,0,0,0,.2-.041l.023-.007a.13.13,0,0,1-.035.127.06.06,0,0,0-.024.051.244.244,0,0,0,.13.222.187.187,0,0,0,.032.2.067.067,0,0,0,.052.018s.059,0,.071.026a.237.237,0,0,1,.012.151.385.385,0,0,0,.075.282.364.364,0,0,0,.3.142,1.725,1.725,0,0,0,.515-.134c.08,0,.234.025.259.1a3.042,3.042,0,0,1,.09.866.38.38,0,0,1-.269.2,1.733,1.733,0,0,1-.322.026,2.028,2.028,0,0,0-.565.066,1.876,1.876,0,0,0-.892.856l0,.016a.6.6,0,0,0-.475.449v.01c-.55.253-.706,1.27-.723,1.411-.042.065-.247.376-.423.714a6.02,6.02,0,0,0-.516-.555A9.958,9.958,0,0,1,30,189.877a1.243,1.243,0,0,1-.178-.333l0-.016a.455.455,0,0,0-.146-.269.483.483,0,0,0,.325-.38.373.373,0,0,0,.248-.19.213.213,0,0,0-.009-.178.066.066,0,0,0-.054-.032l-.4-.008a1.047,1.047,0,0,0,.255-.627,2.143,2.143,0,0,0-.111-.791,2.176,2.176,0,0,1-.086-.4.48.48,0,0,1,.147-.435.063.063,0,0,0,.027-.055.066.066,0,0,0-.033-.052.192.192,0,0,0-.2.014c.1-.869-.4-1.086-.423-1.1a.063.063,0,0,0-.068.1c.117.111.2.273-.005.692a1.232,1.232,0,0,0-.1.309v-.017a.068.068,0,0,0-.054-.06.063.063,0,0,0-.07.039,1.517,1.517,0,0,0-.089.69v.2a1.1,1.1,0,0,1-.071.409,1.616,1.616,0,0,0-.089.4,1.079,1.079,0,0,0,.191.668l-2.377-.048a.062.062,0,0,0-.053.026.208.208,0,0,0-.029.178l-.234,0a.659.659,0,0,1-.365-.087.252.252,0,0,1-.106-.341.245.245,0,0,1,.03-.044.342.342,0,0,1,.282-.1c.13.02.241.137.322.34h0l.007.011.006.009.011.007.01.006h.01a.033.033,0,0,0,.014,0h.021l.012-.007.008-.006.006-.01.007-.011v-.024h0a.7.7,0,0,0-.34-.613.66.66,0,0,0-.656.027.732.732,0,0,0-.259,1l.014.023a1.258,1.258,0,0,0,.973.521,5.48,5.48,0,0,0,1.466.542H27.8a5.907,5.907,0,0,1,1.024.148,7.743,7.743,0,0,1,1.278,2.037c.176.339.314.607.385.7.23.414.975,1.2,1.4,1.2.3,0,.609-.353.966-.765L33,193a1.469,1.469,0,0,0,.167.331,2.524,2.524,0,0,0-.149.244,2.189,2.189,0,0,0-.226,1.457,2.177,2.177,0,0,0-.617,1.579,1.818,1.818,0,0,0,.211.777c-.08.257-.436,1.442-.211,1.81a.243.243,0,0,0,.129.107c-.019.158-.071.61-.071.826a3.916,3.916,0,0,0,.044.6h0a2.636,2.636,0,0,1,.023.333c0,.07.012.239.026.452v.044H28.7l-2.752-1.553L25.929,200l-.017.009-2.758,1.553h-1.5a15.247,15.247,0,0,1,12.07-19.625ZM23.172,201.634l.007-.005,2.752-1.552,2.742,1.552.008.005h3.646c0,.064.008.129.012.2H28.7l-2.752-1.515-.016-.009-.016.009-2.758,1.515H21.744c-.022-.065-.043-.131-.064-.2ZM28,204v-.2h.31v.2Zm.31.066v2.617h-.227v-2.617Zm-.293,2.038v.579H27.007V206.1Zm-.829-.066v-1.129a.322.322,0,1,1,.645,0h0v1.129Zm.711,0v-1.129a.388.388,0,1,0-.776,0v1.129h-.118v-1.61h1.012v1.61Zm-.894-1.675v-.3h.1V203.8h.827v.262h.083v.3ZM26.588,204v-.2h.455v.2Zm.353,2.681h-.25v-2.615h.25ZM24.816,204v-.2h.456v.2Zm.353.066v2.617h-.25v-2.617Zm-.315,0v.3H23.839v-.3h.083V203.8h.827v.262Zm.38.706a.7.7,0,1,1,1.393,0v1.911H25.233Zm.7-.781a.763.763,0,0,0-.7.465v-.39h.1V203.8h1.187v.263h.1v.39a.764.764,0,0,0-.7-.465Zm-2.384-.254v-.262h4.767v.266Zm.449-.328v-.82a.323.323,0,1,1,.645-.03.15.15,0,0,1,0,.03v.82Zm1.935-2.018a.77.77,0,0,0-.762.777v1.241H25V202.1a.9.9,0,0,1,.92-.886h.014a.917.917,0,0,1,.933.886v1.311h-.172v-1.241a.769.769,0,0,0-.763-.776h0Zm.7.777v1.241H25.233v-1.241a.7.7,0,1,1,1.393,0h0Zm.576,1.241v-.82a.323.323,0,1,1,.646-.03v.85Zm.711,0v-.82a.389.389,0,1,0-.776-.047.368.368,0,0,0,0,.047v.82h-.207V202.1a.982.982,0,0,0-1-.952.969.969,0,0,0-1,.937v1.326h-.225v-.82a.389.389,0,1,0-.776-.047.369.369,0,0,0,0,.047v.82h-.382v-1.432l2.383-1.277,2.383,1.281v1.428Zm-4.367.657h.228V205.8c-.077-.108-.153-.216-.228-.326Zm0-.066v-.2h.311v.2Zm.293.428h1.014v1.61h-.118v-1.129a.389.389,0,1,0-.776-.047.369.369,0,0,0,0,.047v1.129h-.013l-.105-.142Zm.83.481v1.129h-.647v-1.129a.323.323,0,0,1,.646-.03v.03Zm.183,1.2v.579h-.4c-.125-.151-.248-.3-.367-.461L24,206.1Zm3.458.645v.529H24.97q-.238-.26-.465-.529Zm4.761.6A10.81,10.81,0,0,1,33,208.494a2.919,2.919,0,0,0,.084,1.212c.089.276.253.331.344.34a.358.358,0,0,0,.108-.007c.018.231.065.88.065,1.089a1.406,1.406,0,0,1-.04.273,1.141,1.141,0,0,0-.032.225H32l-.012-.005a15.336,15.336,0,0,1-6.954-4.279Zm.494,4.411a.151.151,0,0,0,.076.053l-.369.2c-.295,0-.456.044-.5.135a.142.142,0,0,0-.011.033c-.12.022-.216.056-.216.152a.35.35,0,0,0,.141.255.469.469,0,0,0,.415.071l.154-.038a.88.88,0,0,1,.5-.042,2.3,2.3,0,0,0,1.063-.076,2.518,2.518,0,0,0,.494.25H30.945l.762-.988Zm2.181,1.117a2.54,2.54,0,0,0,.507.057h.025a3.82,3.82,0,0,0,.8-.07h1.107a.945.945,0,0,0,.157.159.453.453,0,0,1,.052.141.494.494,0,0,0,.476.419.244.244,0,0,0,.247-.141.343.343,0,0,0,.229-.07.253.253,0,0,0,.085-.158.228.228,0,0,0,.117-.078.248.248,0,0,0,.048-.18.2.2,0,0,0,.1-.07.143.143,0,0,0,.016-.024H41.1v.512a.064.064,0,0,0,.023.05c.052.042.182.174.161.282-.016.08-.119.131-.211.161h0l-9.984.009a.054.054,0,0,0-.034.012H31.03c-.085,0-.272-.082-.3-.178-.039-.158.123-.3.124-.3a.062.062,0,0,0,.022-.047v-.48Zm5.054,1.117a1.286,1.286,0,0,0-.415.368H31.5a.892.892,0,0,0-.253-.359Zm-1.97,2.246a19.764,19.764,0,0,1-6.088-.128v-.9h6.088ZM40.172,216c-.4.082-.807.153-1.214.211V215.14a.063.063,0,0,0-.063-.063H32.68a.063.063,0,0,0-.063.063v.946q-.516-.095-1.021-.219a7.6,7.6,0,0,0-.066-1.382h8.78a.771.771,0,0,0-.053.141A4.864,4.864,0,0,0,40.171,216Zm9.763-5.287a19.3,19.3,0,0,1-9.635,5.26,4.717,4.717,0,0,1,.081-1.32,1.188,1.188,0,0,1,.716-.668c.189-.056.3-.147.319-.264a.465.465,0,0,0-.182-.383v-.547a.042.042,0,0,0-.005-.024l-.005-.008-.006-.011-.54-.587v-.49a15.5,15.5,0,0,0,7.373-4.928h.008v-.009c.141-.17.277-.342.409-.518a15.367,15.367,0,0,0-10.527-24.513.022.022,0,0,0-.016,0c-.07-.052-.141-.1-.216-.149-1.9-1.191-4,.226-4.018.241a.044.044,0,0,0-.014.013,15.371,15.371,0,0,0-2.051,29.837h0l-.859,1.121-.006.009,0,.007a.054.054,0,0,0,0,.022v.516a.445.445,0,0,0-.141.4c.039.165.276.267.4.274a.7.7,0,0,1,.36.4,5.859,5.859,0,0,1,.093,1.43,19.361,19.361,0,1,1,18.466-5.119Zm.4-27.886a20,20,0,1,0,0,28.285A20,20,0,0,0,50.333,182.831Zm-.155,28.131a19.746,19.746,0,1,1,.254-.253C50.348,210.794,50.263,210.879,50.178,210.962Z" fill="#111012"/>
    <g id="Group_28-2" data-name="Group 28">
      <rect id="Rectangle_26" data-name="Rectangle 26" width="0.35" height="33.68" transform="translate(63.638 180.647)" fill="#111012"/>
    </g>
    <g id="Group_29" data-name="Group 29">
      <path id="Path_35" data-name="Path 35" d="M70.749,185.226c0-1.069-.089-1.1-.553-1.169l-.167-.031a.205.205,0,0,1,.019-.282c.4.021.839.031,1.27.031s.889-.01,1.323-.031a.205.205,0,0,1,.02.282l-.214.028c-.464.071-.553.1-.553,1.169v2.307c0,1.391.415,2.56,1.787,2.56,1.294,0,1.827-1,1.827-2.529V186.3a5.879,5.879,0,0,0-.188-1.985.627.627,0,0,0-.494-.262l-.2-.031c-.089-.07-.079-.251.02-.282.336.021.711.031,1.1.031.415,0,.682-.01,1.047-.031a.2.2,0,0,1,.022.28l0,0-.217.051c-.188.04-.366.08-.435.242a7.471,7.471,0,0,0-.141,1.985v1.2a3.41,3.41,0,0,1-.651,2.329,2.565,2.565,0,0,1-1.935.755,2.756,2.756,0,0,1-2.034-.644,2.9,2.9,0,0,1-.652-2.157Z" fill="#111012"/>
      <path id="Path_36" data-name="Path 36" d="M83.811,188.711c0,.3,0,1.541.03,1.773a.374.374,0,0,1-.335.141c-.159-.212-.445-.555-1.155-1.381l-2.31-2.69c-.643-.736-.959-1.119-1.129-1.27-.03,0-.03.111-.03.645v1.965a6.26,6.26,0,0,0,.178,1.985.645.645,0,0,0,.5.252l.216.03c.089.071.08.262-.019.292-.365-.02-.751-.03-1.129-.03-.414,0-.681.01-1.026.03a.211.211,0,0,1-.02-.292l.217-.051c.188-.029.366-.07.435-.231a8.009,8.009,0,0,0,.128-1.985v-2.386c0-.787.01-.947-.326-1.24a1.565,1.565,0,0,0-.523-.2l-.148-.03c-.071-.061-.06-.262.039-.293.375.04.917.031,1.165.031.207,0,.444-.01.682-.031a13.312,13.312,0,0,0,1.589,2.086l.988,1.089c.414.463,1.333,1.531,1.432,1.591.029-.029.029-.08.029-.241V186.3a5.9,5.9,0,0,0-.188-1.985.621.621,0,0,0-.493-.252l-.228-.03c-.089-.071-.079-.262.02-.293.385.021.75.031,1.135.031.423,0,.681-.01,1.037-.031a.212.212,0,0,1,.02.293l-.228.05c-.187.03-.352.071-.423.232A7.43,7.43,0,0,0,83.8,186.3Z" fill="#111012"/>
      <path id="Path_37" data-name="Path 37" d="M87.455,188.975c0,1.067.089,1.1.553,1.158l.218.03c.07.071.059.252-.02.292-.435-.02-.879-.03-1.314-.03s-.9.01-1.332.03c-.079-.04-.089-.221-.02-.292l.218-.03c.463-.061.552-.091.552-1.158v-3.749c0-1.069-.089-1.1-.552-1.159l-.218-.03c-.07-.071-.059-.253.02-.293q.653.031,1.332.031c.435,0,.879-.01,1.314-.031.079.04.089.222.02.293l-.218.03c-.464.06-.553.09-.553,1.159Z" fill="#111012"/>
      <path id="Path_38" data-name="Path 38" d="M93.287,187.926c-.394.917-.858,2.1-1.026,2.611a.243.243,0,0,1-.168.05.386.386,0,0,1-.188-.05,12.863,12.863,0,0,0-.454-1.321l-1.725-4.245c-.276-.675-.364-.817-.759-.9l-.238-.05c-.07-.071-.07-.252.03-.283.385.021.81.031,1.195.031.443,0,.776-.01,1.3-.031a.194.194,0,0,1,.028.273l-.018.02-.247.06c-.217.05-.3.1-.3.182a7.8,7.8,0,0,0,.484,1.34l.712,1.794c.177.453.443,1.047.542,1.279.533-1.27,1.129-2.66,1.649-4.03.158-.4.128-.484-.168-.555l-.286-.07a.219.219,0,0,1,.019-.293c.4.02.741.03,1.059.03.352,0,.681-.01.957-.03.08.051.071.211.021.293l-.247.05a.816.816,0,0,0-.613.412c-.276.484-.564,1.16-1.007,2.177Z" fill="#111012"/>
      <path id="Path_39" data-name="Path 39" d="M96.678,185.226c0-1.069-.089-1.1-.554-1.169l-.157-.02a.217.217,0,0,1,.02-.293c.374.021.839.031,1.273.031h1.883c.635,0,1.205-.01,1.333-.031.04.172.1.968.158,1.4-.039.081-.237.1-.316.041-.158-.585-.305-.837-.621-.918a2.887,2.887,0,0,0-.791-.091h-.661c-.423,0-.423.021-.423.6v1.7c0,.262.01.272.237.272h.474c.859,0,1.027-.01,1.1-.443l.07-.343c.079-.07.267-.07.316.011-.009.271-.029.635-.029,1.007s.02.735.029,1.059a.282.282,0,0,1-.316.009l-.07-.4c-.071-.423-.237-.443-1.1-.443h-.474c-.227,0-.237.02-.237.272v1.279a1.825,1.825,0,0,0,.168,1.049c.118.141.286.221,1.115.221,1.254.02,1.471-.272,1.817-1.088a.231.231,0,0,1,.316.06,6.5,6.5,0,0,1-.415,1.461c-.434-.02-1.283-.03-2.438-.03H97.256c-.435,0-1.036.01-1.482.03-.079-.04-.088-.221-.019-.292l.364-.04c.465-.051.554-.081.554-1.148Z" fill="#111012"/>
      <path id="Path_40" data-name="Path 40" d="M102.632,185.286c0-.967-.01-1.088-.474-1.139l-.257-.03a.207.207,0,0,1,.01-.282c.622-.06,1.461-.09,2.27-.09a4.07,4.07,0,0,1,1.876.343,1.585,1.585,0,0,1,.869,1.471,1.737,1.737,0,0,1-1.185,1.592c-.059.031-.039.111,0,.171a11.664,11.664,0,0,0,1.748,2.611,1.248,1.248,0,0,0,.681.312.186.186,0,0,1,.019.2,2.586,2.586,0,0,1-.651.061,2.239,2.239,0,0,1-2.064-1.331c-.266-.423-.542-.977-.776-1.37a.552.552,0,0,0-.612-.343c-.3,0-.306.011-.306.222v1.29c0,1.068.089,1.1.553,1.159l.217.03a.216.216,0,0,1-.02.292c-.434-.02-.878-.03-1.313-.03s-.878.01-1.332.03a.2.2,0,0,1-.03-.281l.01-.011.217-.03c.464-.061.553-.091.553-1.159Zm1.145,1.451c0,.323,0,.343.473.343.968,0,1.411-.484,1.411-1.441a1.381,1.381,0,0,0-1.265-1.488c-.032,0-.065,0-.1,0-.513,0-.523.03-.523.494Z" fill="#111012"/>
      <path id="Path_41" data-name="Path 41" d="M108.822,190.163a3.043,3.043,0,0,1-.3-1.531.216.216,0,0,1,.3-.043l0,0c.178.514.711,1.593,1.679,1.593a1.058,1.058,0,0,0,1.168-.935.868.868,0,0,0,.006-.144,1.622,1.622,0,0,0-1.007-1.461l-.423-.241a2.329,2.329,0,0,1-1.393-1.946c0-1,.731-1.844,2.172-1.844a6.387,6.387,0,0,1,1.353.212,4.331,4.331,0,0,1,.207,1.361.233.233,0,0,1-.315.029,1.411,1.411,0,0,0-1.334-1.2,1.015,1.015,0,0,0-1.111.909.925.925,0,0,0,0,.149,1.494,1.494,0,0,0,.937,1.23l.613.332a2.276,2.276,0,0,1,1.352,1.986c0,1.148-.858,1.965-2.29,1.965A2.943,2.943,0,0,1,108.822,190.163Z" fill="#111012"/>
      <path id="Path_42" data-name="Path 42" d="M115.684,188.975c0,1.067.089,1.1.553,1.158l.217.03a.216.216,0,0,1-.02.292c-.434-.02-.879-.03-1.313-.03s-.9.01-1.332.03c-.079-.04-.089-.221-.02-.292l.217-.03c.464-.061.553-.091.553-1.158v-3.749c0-1.069-.089-1.1-.553-1.159l-.217-.03a.217.217,0,0,1,.02-.293c.434.021.879.031,1.332.031.434,0,.879-.01,1.313-.031.079.04.089.222.02.293l-.217.03c-.464.06-.553.09-.553,1.159Z" fill="#111012"/>
      <path id="Path_43" data-name="Path 43" d="M119.91,184.618c0-.423-.01-.443-.266-.443h-.553c-.909,0-1.176.111-1.54.927a.243.243,0,0,1-.316-.071c.167-.544.316-1.169.385-1.522a.122.122,0,0,1,.108-.039.115.115,0,0,1,.1.039c.05.253.187.263.859.263h4.028c.484,0,.635-.031.751-.263a.271.271,0,0,1,.117-.039.153.153,0,0,1,.129.05,7.179,7.179,0,0,0-.148,1.6.232.232,0,0,1-.306.032c-.129-.786-.316-.978-1.373-.978h-.564c-.257,0-.267.02-.267.443v4.354c0,1.067.089,1.1.553,1.148l.353.041a.215.215,0,0,1-.021.292c-.572-.021-1.016-.031-1.45-.031s-.9.01-1.53.031a.219.219,0,0,1-.02-.292l.414-.051c.464-.04.553-.071.553-1.138Z" fill="#111012"/>
      <path id="Path_44" data-name="Path 44" d="M126.1,187.956c-.257,0-.247,0-.336.273l-.4,1.209c-.2.594-.158.624.208.675l.286.05c.071.071.06.252-.019.292-.317-.02-.643-.02-1.047-.03-.326,0-.632.01-.978.03a.232.232,0,0,1-.01-.292l.3-.05c.286-.041.395-.131.542-.463.12-.263.278-.686.484-1.23l1.353-3.587a1.628,1.628,0,0,0,.188-.736,1.73,1.73,0,0,0,.691-.484.193.193,0,0,1,.167.081c.158.453.287.927.445,1.38l1.421,4.223c.228.675.277.745.777.836l.148.03a.22.22,0,0,1,.01.292c-.4-.02-.77-.03-1.284-.03-.423,0-.858.021-1.2.03a.233.233,0,0,1-.03-.292l.218-.03c.352-.04.385-.1.256-.534l-.464-1.37c-.1-.273-.128-.273-.4-.273Zm-.652-5.209c-.187-.071-.266-.132-.306-.212a.661.661,0,0,1,.109-.373c.108-.2.207-.262.306-.262a.624.624,0,0,1,.306.141l1.747,1.209a.185.185,0,0,1-.118.212Zm1.835,4.756c.276,0,.316-.02.237-.262l-.414-1.209a4.871,4.871,0,0,0-.277-.8h-.02c-.039.07-.118.322-.3.8l-.414,1.179c-.109.292-.079.292.157.292Z" fill="#111012"/>
      <path id="Path_45" data-name="Path 45" d="M70.808,195.746c0-.968-.01-1.088-.473-1.149l-.208-.02a.208.208,0,0,1,.01-.282c.711-.061,1.5-.091,2.47-.091a6.375,6.375,0,0,1,2.328.343,3.082,3.082,0,0,1,2.024,3.013,3.2,3.2,0,0,1-1.768,2.9,5.333,5.333,0,0,1-2.447.484c-.6,0-1.066-.061-1.432-.061s-.82.011-1.254.03c-.079-.04-.089-.221-.019-.292l.216-.03c.464-.061.553-.09.553-1.159Zm1.145,3.295c0,.978.071,1.5,1.117,1.5,1.756,0,2.547-1.27,2.547-2.973a2.623,2.623,0,0,0-2.784-2.963,1.7,1.7,0,0,0-.8.141c-.07.06-.079.272-.079.745Z" fill="#111012"/>
      <path id="Path_46" data-name="Path 46" d="M78.451,195.686c0-1.068-.089-1.1-.553-1.169l-.158-.02c-.071-.071-.06-.253.019-.293.376.021.84.03,1.274.03h1.886c.631,0,1.2-.009,1.333-.03.039.172.1.967.158,1.4-.04.081-.237.1-.316.041-.158-.585-.307-.837-.623-.918a2.835,2.835,0,0,0-.789-.091h-.659c-.423,0-.423.021-.423.6v1.7c0,.262.009.272.237.272h.468c.859,0,1.027-.01,1.1-.443l.07-.343c.079-.071.267-.071.316.011-.009.271-.029.635-.029,1.007s.02.736.029,1.058a.281.281,0,0,1-.316.01l-.07-.4c-.071-.423-.237-.443-1.1-.443h-.473c-.227,0-.237.019-.237.272v1.279a1.818,1.818,0,0,0,.168,1.049c.118.141.286.221,1.115.221,1.254.021,1.471-.272,1.816-1.088a.232.232,0,0,1,.316.06,6.552,6.552,0,0,1-.414,1.461c-.435-.019-1.283-.03-2.438-.03H79.035c-.434,0-1.036.011-1.482.03-.078-.04-.088-.221-.019-.292l.366-.04c.463-.051.552-.08.552-1.149Z" fill="#111012"/>
      <path id="Path_47" data-name="Path 47" d="M89.538,199.837c0,.353.049.615.237.706a.122.122,0,0,1-.01.151,2.071,2.071,0,0,0-.474.08,9.377,9.377,0,0,1-1.915.273,4.08,4.08,0,0,1-3.04-1.109,3.345,3.345,0,0,1-.869-2.308,3.421,3.421,0,0,1,.908-2.368,4.156,4.156,0,0,1,3.149-1.188,6.9,6.9,0,0,1,1.313.151,3.96,3.96,0,0,0,.632.09c.01.3.079.816.128,1.6a.211.211,0,0,1-.3.037l-.019-.016a1.774,1.774,0,0,0-1.895-1.462c-1.738,0-2.577,1.28-2.577,2.993a3.624,3.624,0,0,0,.711,2.318,2.492,2.492,0,0,0,1.905.857c.473,0,.76-.081.879-.232a1.327,1.327,0,0,0,.088-.635v-.362c0-.717-.01-.777-.671-.887l-.353-.061a.22.22,0,0,1,.01-.292c.386.02.859.03,1.541.03.444,0,.779-.01,1.2-.03a.188.188,0,0,1,.048.26.213.213,0,0,1-.028.032l-.178.03c-.366.05-.423.141-.423.756Z" fill="#111012"/>
      <path id="Path_48" data-name="Path 48" d="M92.935,199.223a1.8,1.8,0,0,0,.167,1.038c.119.141.277.222,1.067.222,1.1,0,1.253-.05,1.708-1.088a.26.26,0,0,1,.306.06,9.617,9.617,0,0,1-.415,1.461c-.415-.02-1.264-.03-2.369-.03H92.37c-.5,0-1,.01-1.411.03-.079-.04-.109-.241-.02-.292l.3-.05c.463-.061.552-.091.552-1.139v-3.749c0-1.049-.089-1.078-.552-1.15l-.277-.04c-.071-.051-.071-.252.02-.293.494.021.937.031,1.392.031.434,0,.878-.01,1.312-.031a.2.2,0,0,1,.027.285l-.006.008-.218.04c-.464.07-.553.1-.553,1.149Z" fill="#111012"/>
      <path id="Path_49" data-name="Path 49" d="M98.692,199.435c0,1.068.089,1.1.552,1.159l.218.03c.07.07.059.252-.02.292-.435-.02-.879-.03-1.313-.03s-.9.01-1.333.03c-.079-.04-.089-.222-.02-.292l.218-.03c.464-.061.553-.091.553-1.159v-3.749c0-1.068-.089-1.1-.553-1.159l-.218-.03c-.07-.071-.059-.253.02-.293q.653.032,1.333.03c.434,0,.878-.009,1.313-.03.079.04.089.222.02.293l-.218.03c-.463.06-.552.091-.552,1.159Z" fill="#111012"/>
      <path id="Path_50" data-name="Path 50" d="M103.5,200.623a3.045,3.045,0,0,1-.3-1.532.217.217,0,0,1,.3-.042l0,0c.178.514.711,1.593,1.679,1.593a1.058,1.058,0,0,0,1.168-.935.868.868,0,0,0,.006-.144,1.622,1.622,0,0,0-1.006-1.461l-.424-.242a2.324,2.324,0,0,1-1.392-1.945c0-1,.73-1.843,2.172-1.843a6.441,6.441,0,0,1,1.352.211,4.307,4.307,0,0,1,.208,1.361.236.236,0,0,1-.316.031,1.41,1.41,0,0,0-1.333-1.2,1.016,1.016,0,0,0-1.112.909,1.063,1.063,0,0,0,0,.149,1.494,1.494,0,0,0,.938,1.23l.613.333a2.275,2.275,0,0,1,1.352,1.985c0,1.149-.859,1.965-2.29,1.965A2.937,2.937,0,0,1,103.5,200.623Z" fill="#111012"/>
      <path id="Path_51" data-name="Path 51" d="M110.866,195.081c0-.423-.01-.444-.266-.444h-.554c-.908,0-1.174.112-1.54.927a.242.242,0,0,1-.315-.07c.167-.544.315-1.169.384-1.521a.124.124,0,0,1,.109-.041.113.113,0,0,1,.1.041c.049.252.187.261.858.261h4.028c.484,0,.635-.03.751-.261a.265.265,0,0,1,.119-.041.149.149,0,0,1,.127.05,7.3,7.3,0,0,0-.147,1.6.232.232,0,0,1-.306.03c-.129-.786-.316-.977-1.373-.977h-.564c-.256,0-.266.02-.266.443v4.355c0,1.068.089,1.1.552,1.149l.353.04a.216.216,0,0,1-.02.292c-.573-.02-1.016-.03-1.451-.03s-.9.01-1.53.03a.219.219,0,0,1-.02-.292l.415-.05c.464-.041.552-.071.552-1.139Z" fill="#111012"/>
      <path id="Path_52" data-name="Path 52" d="M116.118,195.686c0-1.068-.089-1.1-.552-1.169l-.168-.031a.205.205,0,0,1,.02-.282c.4.021.839.03,1.273.03s.889-.009,1.323-.03a.205.205,0,0,1,.02.282l-.217.031c-.465.07-.554.1-.554,1.169v2.307c0,1.391.415,2.56,1.788,2.56,1.293,0,1.826-1,1.826-2.53v-1.259a5.886,5.886,0,0,0-.187-1.986.631.631,0,0,0-.494-.261l-.2-.031c-.088-.07-.078-.252.021-.282.335.021.71.03,1.1.03.415,0,.682-.009,1.047-.03a.2.2,0,0,1,.023.279l0,0-.218.05c-.187.041-.365.082-.434.242a7.522,7.522,0,0,0-.138,1.986v1.2a3.4,3.4,0,0,1-.652,2.329,2.558,2.558,0,0,1-1.934.755,2.757,2.757,0,0,1-2.034-.645,2.9,2.9,0,0,1-.652-2.157Z" fill="#111012"/>
      <path id="Path_53" data-name="Path 53" d="M123.751,195.746c0-.968-.01-1.088-.474-1.149l-.208-.02a.212.212,0,0,1,.011-.282c.711-.061,1.5-.091,2.47-.091a6.375,6.375,0,0,1,2.328.343,3.081,3.081,0,0,1,2.024,3.013,3.206,3.206,0,0,1-1.767,2.9,5.341,5.341,0,0,1-2.449.484c-.6,0-1.066-.061-1.431-.061s-.819.011-1.254.03c-.079-.04-.089-.221-.02-.292l.218-.03c.463-.061.552-.09.552-1.159Zm1.145,3.295c0,.978.071,1.5,1.116,1.5,1.757,0,2.547-1.27,2.547-2.973a2.623,2.623,0,0,0-2.784-2.963,1.691,1.691,0,0,0-.8.141c-.07.06-.079.272-.079.745Z" fill="#111012"/>
      <path id="Path_54" data-name="Path 54" d="M132.637,199.435c0,1.068.089,1.1.553,1.159l.217.03a.216.216,0,0,1-.019.292c-.434-.02-.879-.03-1.314-.03s-.9.01-1.332.03c-.079-.04-.089-.222-.02-.292l.217-.03c.464-.061.553-.091.553-1.159v-3.749c0-1.068-.089-1.1-.553-1.159l-.217-.03a.217.217,0,0,1,.02-.293c.434.021.879.031,1.332.03.435,0,.88-.009,1.314-.03.079.04.088.222.019.293l-.217.03c-.464.06-.553.091-.553,1.159Z" fill="#111012"/>
      <path id="Path_55" data-name="Path 55" d="M70.808,206.208c0-.967-.01-1.088-.473-1.148l-.208-.021a.207.207,0,0,1,.01-.282c.711-.061,1.5-.091,2.47-.091a6.375,6.375,0,0,1,2.328.343,3.082,3.082,0,0,1,2.024,3.013,3.2,3.2,0,0,1-1.768,2.9,5.333,5.333,0,0,1-2.447.484c-.6,0-1.066-.061-1.432-.061s-.82.01-1.254.03c-.079-.04-.089-.221-.019-.292l.216-.03c.464-.061.553-.09.553-1.159Zm1.145,3.3c0,.978.071,1.5,1.117,1.5,1.756,0,2.547-1.27,2.547-2.973a2.623,2.623,0,0,0-2.784-2.963,1.7,1.7,0,0,0-.8.141c-.07.061-.079.272-.079.746Z" fill="#111012"/>
      <path id="Path_56" data-name="Path 56" d="M79.695,209.894c0,1.068.089,1.1.553,1.159l.217.03c.07.071.059.252-.02.292-.434-.02-.879-.03-1.313-.03s-.9.01-1.333.03c-.079-.04-.089-.221-.019-.292l.217-.03c.464-.061.553-.091.553-1.159v-3.748c0-1.069-.089-1.1-.553-1.16l-.217-.03c-.071-.071-.06-.252.019-.292q.652.031,1.333.03c.434,0,.879-.01,1.313-.03.079.04.089.221.02.292l-.217.03c-.464.061-.553.091-.553,1.16Z" fill="#111012"/>
      <path id="Path_57" data-name="Path 57" d="M92.263,211.083c.1.04.089.252-.02.292-.423-.02-.809-.03-1.2-.03-.465,0-.889.01-1.323.03-.079-.04-.118-.231-.02-.292l.267-.051c.4-.06.423-.141.423-.826v-4.121h-.02c-.266.554-.4.856-.592,1.259l-.847,1.774c-.336.706-.829,1.824-1.007,2.3a.284.284,0,0,1-.257,0c-.168-.544-.592-1.531-.82-2.035l-.878-1.935c-.187-.423-.454-1.058-.572-1.36h-.021c-.019.494-.038,1.28-.059,1.7-.02.615-.039,1.511-.039,2.338,0,.665.01.826.434.9l.326.061c.071.061.071.252-.01.292-.364-.02-.671-.03-1.036-.03-.316,0-.672.01-1.058.03a.222.222,0,0,1-.03-.292l.168-.02c.473-.061.552-.212.612-.827.079-.635.1-1.289.148-2.337.039-.686.1-1.522.1-2.137,0-.473-.148-.685-.533-.745l-.336-.061c-.059-.071-.048-.262.04-.292.3.02.565.03.928.03.345,0,.691,0,1.059-.03a4.808,4.808,0,0,0,.543,1.673l1.086,2.328c.078.172.335.675.463.907.159-.292.3-.574.514-1.048l.928-1.935a10.614,10.614,0,0,0,.8-1.924c.267.02.592.03.809.03.415,0,.76-.01,1.037-.03a.176.176,0,0,1,.072.239.183.183,0,0,1-.043.053l-.326.051c-.434.06-.532.231-.532.765,0,1.492.019,2.983.088,4.475.03.674.138.745.455.785Z" fill="#111012"/>
      <path id="Path_58" data-name="Path 58" d="M95.255,209.894c0,1.068.09,1.1.553,1.159l.218.03c.07.071.059.252-.02.292-.435-.02-.879-.03-1.313-.03s-.9.01-1.333.03c-.079-.04-.089-.221-.02-.292l.218-.03c.464-.061.553-.091.553-1.159v-3.748c0-1.069-.089-1.1-.553-1.16l-.218-.03c-.07-.071-.059-.252.02-.292q.652.031,1.333.03c.434,0,.878-.01,1.313-.03.079.04.089.221.02.292l-.218.03c-.463.061-.553.091-.553,1.16Z" fill="#111012"/>
      <path id="Path_59" data-name="Path 59" d="M98.978,209.683a1.794,1.794,0,0,0,.168,1.037c.118.142.276.222,1.066.222,1.1,0,1.253-.05,1.708-1.089a.262.262,0,0,1,.306.061,9.733,9.733,0,0,1-.415,1.461c-.415-.02-1.264-.03-2.369-.03H98.415c-.5,0-1,.01-1.411.03-.079-.04-.108-.242-.02-.292l.3-.051c.463-.06.552-.09.552-1.138v-3.748c0-1.049-.089-1.079-.552-1.149L97,204.956c-.07-.05-.07-.252.02-.292.494.02.938.03,1.392.03.434,0,.878-.01,1.313-.03a.2.2,0,0,1,.028.283l-.008.009-.218.041c-.464.071-.553.1-.553,1.149Z" fill="#111012"/>
      <path id="Path_60" data-name="Path 60" d="M104.586,208.876c-.257,0-.247,0-.336.272l-.4,1.209c-.2.6-.158.625.208.675l.286.051a.216.216,0,0,1-.02.292c-.316-.02-.641-.02-1.047-.03-.325,0-.631.01-.976.03a.228.228,0,0,1-.011-.292l.3-.051c.286-.04.395-.13.542-.463.119-.262.277-.685.484-1.229l1.353-3.588a1.613,1.613,0,0,0,.187-.735,1.733,1.733,0,0,0,.692-.484.193.193,0,0,1,.167.081c.158.453.287.927.445,1.38l1.421,4.223c.227.675.277.745.776.836l.149.03a.22.22,0,0,1,.009.292c-.4-.02-.769-.03-1.283-.03-.423,0-.859.02-1.2.03a.233.233,0,0,1-.03-.292l.217-.03c.353-.04.386-.1.257-.534l-.464-1.371c-.1-.272-.128-.272-.405-.272Zm1.184-.454c.277,0,.317-.019.237-.261l-.414-1.21a4.9,4.9,0,0,0-.277-.8H105.3c-.04.071-.119.323-.3.8l-.414,1.179c-.109.292-.08.292.157.292Z" fill="#111012"/>
      <path id="Path_61" data-name="Path 61" d="M115.555,209.632c0,.3,0,1.542.029,1.774a.372.372,0,0,1-.335.141c-.158-.212-.444-.555-1.156-1.381l-2.31-2.688c-.641-.736-.957-1.119-1.128-1.27-.03,0-.03.111-.03.646v1.965a6.231,6.231,0,0,0,.178,1.985.641.641,0,0,0,.5.252l.218.031c.088.07.078.261-.021.292-.364-.021-.75-.031-1.124-.031-.415,0-.682.01-1.028.031a.212.212,0,0,1-.019-.292l.217-.051c.188-.031.365-.071.435-.232a8.055,8.055,0,0,0,.128-1.985v-2.392c0-.785.009-.947-.326-1.239a1.585,1.585,0,0,0-.524-.2l-.147-.03c-.071-.06-.059-.262.039-.292.375.04.917.03,1.165.03.208,0,.444-.01.681-.03a13.364,13.364,0,0,0,1.59,2.086l.988,1.088c.414.464,1.332,1.532,1.431,1.593.03-.031.03-.081.03-.242v-1.965a5.912,5.912,0,0,0-.188-1.986.628.628,0,0,0-.494-.252l-.227-.03c-.089-.071-.078-.262.02-.292.385.02.751.03,1.136.03.423,0,.681-.01,1.036-.03a.211.211,0,0,1,.02.292l-.227.051c-.188.029-.353.07-.424.231a7.564,7.564,0,0,0-.137,1.986Z" fill="#111012"/>
      <path id="Path_62" data-name="Path 62" d="M124.283,208.043a3.381,3.381,0,0,1-3.295,3.466q-.09,0-.18,0a3.329,3.329,0,0,1-3.51-3.139c0-.086-.007-.171,0-.257a3.436,3.436,0,0,1,3.288-3.576c.083,0,.165,0,.247,0a3.316,3.316,0,0,1,3.458,3.168A3.2,3.2,0,0,1,124.283,208.043Zm-5.644-.222c0,1.39.582,3.285,2.27,3.285,1.129,0,2.033-.856,2.033-2.882,0-1.522-.67-3.285-2.24-3.285-.99,0-2.066.732-2.066,2.879Z" fill="#111012"/>
    </g>
  </g>
</svg>
